<svg width="409" height="300" viewBox="0 0 409 300" fill="none" xmlns="http://www.w3.org/2000/svg">
<g clip-path="url(#clip0)">
<path opacity="0.1" d="M29.5516 120.388C38.1509 139.81 27.1789 162.184 14.284 179.048C9.95951 184.693 5.20592 190.602 4.59935 197.708C3.87723 206.373 9.74494 214.341 16.7103 219.548C29.4071 229.039 46.7544 231.973 61.8652 227.186C74.9252 223.06 85.9055 213.706 99.0769 209.934C121.12 203.625 144.467 214.085 163.329 227.112C176.678 236.33 190.975 247.538 207.068 245.569C218.399 244.183 228.014 236.231 234.533 226.865C237.682 222.326 240.422 217.279 245.01 214.225C247.738 212.41 250.94 211.448 254.146 210.763C283.402 204.512 314.445 219.771 343.313 211.923C362.81 206.621 378.358 191.209 388.022 173.469C397.686 155.73 402.201 135.692 405.96 115.84C408.629 101.732 410.845 86.51 404.722 73.5284C398.227 59.7958 383.194 51.4729 368.088 49.9173C352.981 48.3616 337.825 52.6737 323.907 58.756C306.514 66.3609 289.468 77.0069 270.482 77.0441C257.555 77.0688 245.229 72.0924 232.866 68.325C212.16 61.9993 190.703 58.855 169.275 55.9541C148.771 53.1771 128.069 50.5899 107.441 52.2404C92.8461 53.3999 79.9594 58.9788 65.7976 61.5578C56.5669 63.2413 47.2908 61.9704 38.2335 64.8217C27.0922 68.3085 15.6044 76.4004 14.9896 89.1302C14.4077 101.233 24.9878 110.076 29.5516 120.388Z" fill="#61A199"/>
<g opacity="0.5">
<path opacity="0.5" d="M287.975 75.5772C285.912 76.1714 283.349 77.7064 282.095 81.9195C279.619 90.1722 285.347 95.8171 283.469 104.388C282.956 106.666 281.972 108.813 280.581 110.689C278.282 113.804 275.782 115.281 273.364 117.464C270.29 120.252 268.088 123.869 267.021 127.879C265.853 132.305 265.755 136.946 266.737 141.418C267.599 145.156 269.068 147.875 270.347 150.908C271.94 154.778 273.183 158.783 274.061 162.875C274.549 164.863 274.826 166.898 274.886 168.945C274.928 171.515 274.527 174.309 274.135 177.065L270.64 201.456C270.174 204.704 269.704 208.005 269.687 211.096C269.662 214.665 270.236 217.731 270.805 220.723C272.043 227.176 273.351 233.873 276.17 237.278C278.988 240.682 283.766 239.502 286.708 232.553C289.506 225.951 289.564 217.12 292.031 210.056C295.918 198.915 303.651 197.429 307.939 186.812C312.065 176.628 310.794 164.117 312.89 152.514C314.384 144.191 317.565 136.598 319.451 128.374C322.162 116.527 321.894 104.231 319.728 95.128C317.561 86.0252 313.674 79.7738 309.383 75.0325C307.563 73.023 305.62 71.2363 303.334 71.0588C300.903 70.8732 298.794 73.9473 296.381 74.851C293.583 75.895 290.793 74.7767 287.975 75.5772Z" fill="#61A199"/>
<path opacity="0.5" d="M301.135 71.6367C301.135 71.6367 297.009 176.975 279.707 239.093" stroke="#535461" stroke-width="2" stroke-miterlimit="10"/>
<path opacity="0.5" d="M281.988 82.4355C281.988 82.4355 300.466 99.2753 296.979 131.362" stroke="#535461" stroke-width="2" stroke-miterlimit="10"/>
<path opacity="0.5" d="M266.465 130.352C266.465 130.352 296.835 136.459 294.582 154.623" stroke="#535461" stroke-width="2" stroke-miterlimit="10"/>
<path opacity="0.5" d="M319.763 94.875C319.763 94.875 307.479 105.632 296.527 136.102" stroke="#535461" stroke-width="2" stroke-miterlimit="10"/>
<path opacity="0.5" d="M307.752 186.964C307.752 186.964 299.367 193.566 292.637 170.537" stroke="#535461" stroke-width="2" stroke-miterlimit="10"/>
<path opacity="0.5" d="M271.582 200.396C271.582 200.396 288.682 198.163 290.258 187.451" stroke="#535461" stroke-width="2" stroke-miterlimit="10"/>
</g>
<path d="M329.31 4.92733C325.077 5.55454 319.985 7.51457 317.893 13.568C313.787 25.4354 326.273 34.4185 323.397 46.8183C322.535 50.532 320.41 53.5526 318.169 55.756C313.779 60.0722 308.782 61.9456 304.036 64.8753C299.291 67.8051 294.364 72.4018 292.14 79.4621C289.998 86.2541 290.927 93.76 293.151 99.3677C295.375 104.975 298.742 109.155 301.75 113.769C305.413 119.448 308.476 125.493 310.89 131.805C311.967 134.582 312.953 137.512 313.304 140.838C313.692 144.63 313.201 148.711 312.714 152.705L308.373 188.192C307.795 192.917 307.213 197.724 307.548 202.275C307.923 207.528 309.475 212.109 311.006 216.582C314.307 226.229 317.839 236.252 324.057 241.596C330.276 246.939 340.047 245.772 345.304 235.885C350.309 226.473 349.389 213.495 353.656 203.385C360.382 187.453 376.206 186.166 383.82 171.043C391.127 156.535 387.038 137.974 389.972 121.114C392.077 109.032 397.767 98.233 400.701 86.3449C404.91 69.2163 402.9 51.0809 397.329 37.4184C391.759 23.756 382.978 14.0879 373.537 6.59851C369.534 3.42533 365.284 0.557497 360.547 0.0293206C355.496 -0.531867 351.469 3.7183 346.604 4.78703C340.951 6.05383 335.05 4.07729 329.31 4.92733Z" fill="#61A199"/>
<path d="M356.072 0.675781C356.072 0.675781 360.054 155.316 331.578 244.739" stroke="#535461" stroke-width="2" stroke-miterlimit="10"/>
<path d="M317.727 14.3105C317.727 14.3105 358.008 41.3053 354.559 88.1397" stroke="#535461" stroke-width="2" stroke-miterlimit="10"/>
<path d="M291.285 83.0352C291.285 83.0352 354.864 95.6289 352.356 122.108" stroke="#535461" stroke-width="2" stroke-miterlimit="10"/>
<path d="M397.387 37.1133C397.387 37.1133 373.222 51.4978 354.188 95.0682" stroke="#535461" stroke-width="2" stroke-miterlimit="10"/>
<path d="M383.448 171.297C383.448 171.297 366.877 180.02 350.219 145.301" stroke="#535461" stroke-width="2" stroke-miterlimit="10"/>
<path d="M310.152 186.793C310.152 186.793 345.28 185.53 347.29 169.949" stroke="#535461" stroke-width="2" stroke-miterlimit="10"/>
<path opacity="0.1" d="M201.453 258.225C298.916 258.225 377.926 250.635 377.926 241.273C377.926 231.912 298.916 224.322 201.453 224.322C103.99 224.322 24.9805 231.912 24.9805 241.273C24.9805 250.635 103.99 258.225 201.453 258.225Z" fill="#61A199"/>
<path d="M27.7491 221.096C27.7491 221.096 31.207 225.635 26.1522 232.443C21.0973 239.252 16.9297 245.037 18.6339 249.291C18.6339 249.291 26.2594 236.611 32.4655 236.433C38.6716 236.256 34.5782 228.721 27.7491 221.096Z" fill="#61A199"/>
<path opacity="0.1" d="M27.747 221.096C28.0484 221.533 28.286 222.011 28.4527 222.515C34.5102 229.629 37.7329 236.268 31.9147 236.438C26.4926 236.594 19.9895 246.287 18.4297 248.738C18.4812 248.927 18.5432 249.113 18.6154 249.295C18.6154 249.295 26.2409 236.615 32.447 236.438C38.6531 236.26 34.5762 228.721 27.747 221.096Z" fill="black"/>
<path d="M34.1807 226.859C34.1807 228.452 34.0033 229.748 33.7681 229.748C33.5329 229.748 33.3555 228.456 33.3555 226.859C33.3555 225.262 33.5783 226.034 33.797 226.034C34.0157 226.034 34.1807 225.267 34.1807 226.859Z" fill="#FFD037"/>
<path d="M36.3787 228.758C34.9798 229.521 33.7625 229.996 33.6594 229.785C33.5562 229.575 34.6002 228.815 35.999 228.056C37.3979 227.297 36.8449 227.85 36.9522 228.056C37.0595 228.262 37.7816 227.99 36.3787 228.758Z" fill="#FFD037"/>
<path d="M9.48306 221.096C9.48306 221.096 6.02516 225.635 11.08 232.443C16.1348 239.252 20.2859 245.037 18.6354 249.291C18.6354 249.291 11.0098 236.611 4.80375 236.433C-1.40232 236.256 2.65803 228.721 9.48306 221.096Z" fill="#61A199"/>
<path opacity="0.1" d="M9.48238 221.096C9.18105 221.533 8.94347 222.011 8.77677 222.515C2.71925 229.629 -0.503453 236.268 5.31474 236.438C10.7368 236.594 17.24 246.287 18.7997 248.738C18.7483 248.927 18.6863 249.113 18.614 249.295C18.614 249.295 10.9885 236.615 4.78244 236.438C-1.42364 236.26 2.65735 228.721 9.48238 221.096Z" fill="black"/>
<path d="M3.05859 226.859C3.05859 228.452 3.23603 229.748 3.47123 229.748C3.70643 229.748 3.88387 228.456 3.88387 226.859C3.88387 225.262 3.66104 226.034 3.44235 226.034C3.22365 226.034 3.05859 225.267 3.05859 226.859Z" fill="#FFD037"/>
<path d="M0.848938 228.758C2.24778 229.521 3.46506 229.996 3.56822 229.785C3.67138 229.575 2.62741 228.815 1.22856 228.056C-0.170278 227.297 0.382657 227.85 0.275372 228.056C0.168086 228.262 -0.549904 227.99 0.848938 228.758Z" fill="#FFD037"/>
<path d="M4.15625 248.701C4.15625 248.701 13.8243 248.404 16.7376 246.328C19.6508 244.252 31.5925 241.789 32.3311 245.09C33.0698 248.391 46.8601 261.641 35.9459 261.728C25.0316 261.814 10.5851 260.027 7.67605 258.257C4.76695 256.487 4.15625 248.701 4.15625 248.701Z" fill="#A8A8A8"/>
<path opacity="0.2" d="M36.1437 260.589C25.2294 260.676 10.783 258.889 7.8739 257.119C5.65803 255.77 4.77499 250.93 4.48201 248.697H4.16016C4.16016 248.697 4.77086 256.496 7.67996 258.266C10.5891 260.037 25.0355 261.827 35.9663 261.741C39.1188 261.716 40.2041 260.594 40.1463 258.935C39.68 259.938 38.4875 260.565 36.1437 260.589Z" fill="black"/>
<path d="M129.992 186.079C129.992 186.079 178.374 155.169 211.822 155.169C211.822 155.169 252.092 148.897 295.893 159.497C339.695 170.098 355.874 183.843 368.018 179.807L317 181.301L129.992 186.079Z" fill="#8CD0F3"/>
<path opacity="0.1" d="M129.992 186.079C129.992 186.079 178.374 155.169 211.822 155.169C211.822 155.169 252.092 148.897 295.893 159.497C339.695 170.098 355.874 183.843 368.018 179.807L317 181.301L129.992 186.079Z" fill="#8CD0F3"/>
<path d="M358.038 233.387H62.9688L71.0812 200.884L121.258 187.543L358.038 193.766V233.387Z" fill="#121C3F"/>
<path d="M373.567 213.078V223.451C373.567 223.451 364.807 229.806 364.01 234.783C364.01 234.783 351.466 237.968 347.885 237.968C347.559 237.968 347.204 237.968 346.832 238.005C347.392 236.504 347.829 234.96 348.14 233.388C349.019 228.977 348.908 224.426 347.817 220.063C346.725 215.701 344.679 211.634 341.826 208.157C338.973 204.68 335.385 201.879 331.319 199.956C327.254 198.033 322.812 197.035 318.315 197.035C313.818 197.035 309.376 198.033 305.311 199.956C301.245 201.879 297.657 204.68 294.804 208.157C291.951 211.634 289.905 215.701 288.814 220.063C287.722 224.426 287.611 228.977 288.49 233.388C288.912 235.514 289.561 237.589 290.425 239.577H273.416C273.416 239.577 273.259 239.631 273.003 239.742C272.091 240.155 269.941 241.244 269.632 242.957H128.671L125.782 242.932C126.396 241.902 126.947 240.835 127.433 239.738C128.339 237.707 129.011 235.579 129.438 233.396C130.277 229.227 130.234 224.929 129.31 220.778C128.386 216.627 126.602 212.716 124.074 209.297C121.547 205.878 118.33 203.026 114.633 200.926C110.935 198.826 106.839 197.524 102.607 197.104C98.3755 196.683 94.1029 197.155 90.0647 198.487C86.0264 199.819 82.3122 201.983 79.1614 204.839C76.0105 207.694 73.493 211.178 71.7712 215.067C70.0493 218.955 69.1613 223.16 69.1644 227.413C69.1643 229.417 69.3605 231.417 69.7503 233.384C70.4153 236.713 71.6344 239.907 73.3568 242.833C71.3431 242.342 66.9485 240.947 66.9485 240.947C66.9485 240.947 48.2354 238.958 43.457 234.758L44.1791 234.258L47.2409 232.166L45.8462 226.802C45.6778 226.576 45.5392 226.329 45.4336 226.068C45.0622 225.172 44.7362 223.509 46.0484 221.421C48.0373 218.236 47.0429 206.888 47.0429 206.888C47.0429 206.888 74.1201 188.175 127.478 183.991C127.478 183.991 128.753 184.981 131.386 185.188C133.169 185.332 135.574 185.113 138.632 183.991C138.632 183.991 143.01 185.98 161.74 175.231C161.74 175.231 193.599 153.328 235.412 155.325C235.412 155.325 278.417 152.734 315.051 166.879C330.839 172.969 342.85 176.217 351.413 177.933C359.319 179.522 364.283 179.815 366.556 179.84H366.606C367.349 179.84 367.79 179.84 367.947 179.84H368.013C368.013 179.84 368.013 184.581 368.265 190.18V190.209C368.356 192.157 368.479 194.208 368.653 196.201V196.325C369.131 201.875 369.957 206.917 371.388 207.916L373.567 213.078Z" fill="#2856B8"/>
<path d="M51.3482 206.433C51.3482 206.433 63.3436 197.074 78.277 199.068C78.277 199.068 64.6888 209.821 58.5653 209.124L57.5213 208.228L51.3317 208.575C51.3317 208.575 50.4074 207.131 51.3482 206.433Z" fill="#8CD0F3"/>
<path opacity="0.2" d="M62.9949 222.627V228.152C62.9949 228.152 62.5822 233.43 57.8163 233.628L44.1992 234.3L47.2569 232.208L45.8621 226.844C45.693 226.62 45.5543 226.374 45.4495 226.114C46.6874 224.975 49.6048 223.052 55.5385 222.639L62.9949 222.627Z" fill="white"/>
<path opacity="0.2" d="M126.359 199.469L136.811 199.057C136.811 199.057 132.582 202.391 129.594 202.692C126.607 202.993 126.359 199.469 126.359 199.469Z" fill="white"/>
<path opacity="0.2" d="M148.359 231.176C148.359 231.176 242.882 218.033 265.73 222.214C265.73 222.214 272.448 222.663 274.99 225.35C277.531 228.036 274.99 226.295 274.99 226.295L148.359 231.176Z" fill="white"/>
<path opacity="0.5" d="M201.273 194.29C201.273 194.29 202.47 192.049 204.41 191.999L217.003 191.352C217.003 191.352 216.805 193.093 214.565 193.741L201.273 194.29Z" fill="#18218A"/>
<path opacity="0.5" d="M274.145 190.507C274.145 190.507 275.341 188.267 277.281 188.217L289.874 187.553C289.874 187.553 289.676 189.294 287.436 189.942L274.145 190.507Z" fill="#18218A"/>
<path d="M231.142 159.806L221.478 185.151L186.635 185.188H177.664H169.861H163.115H155.473C155.473 185.188 160.127 181.771 167.625 177.418C170.101 175.973 172.911 174.43 175.96 172.879C178.766 171.443 181.787 169.99 184.96 168.612C187.436 167.523 190.043 166.475 192.709 165.497C204.795 161.077 218.379 158.11 231.142 159.806Z" fill="#8CD0F3"/>
<path d="M285.893 178.313C285.893 178.313 271.335 180.471 257.442 182.068C252.131 182.678 246.919 183.206 242.653 183.499L242.059 183.541C240.408 183.648 238.877 183.718 237.577 183.743C235.514 183.78 233.971 183.689 233.199 183.442L237.214 159.199C237.214 159.199 242.166 159.253 249.49 159.612L251.091 159.699C252.614 159.785 254.219 159.884 255.894 160C258.288 160.165 260.809 160.363 263.408 160.602C275.961 161.753 290.18 163.821 299.184 167.543C318.343 175.474 285.893 178.313 285.893 178.313Z" fill="#8CD0F3"/>
<path d="M352.987 190.506V196.976C352.987 196.976 342.535 197.125 344.776 195.037C346.226 193.651 347.542 192.131 348.708 190.498L352.987 190.506Z" fill="#8CD0F3"/>
<path d="M368.644 196.315L360.156 196.98V189.202C360.156 189.202 364.089 183.676 368.021 189.8L368.248 190.159L368.644 196.315Z" fill="#8CD0F3"/>
<path d="M99.6084 251.705C113.024 251.705 123.9 240.829 123.9 227.413C123.9 213.997 113.024 203.121 99.6084 203.121C86.1923 203.121 75.3164 213.997 75.3164 227.413C75.3164 240.829 86.1923 251.705 99.6084 251.705Z" fill="#182A7C"/>
<path d="M119.09 227.391C119.099 232.404 117.182 237.229 113.735 240.868C110.289 244.508 105.576 246.685 100.57 246.949C95.5648 247.214 90.6489 245.545 86.8381 242.289C83.0273 239.033 80.6129 234.437 80.0935 229.451C79.5742 224.466 80.9897 219.471 84.0475 215.499C87.1053 211.527 91.5719 208.882 96.5245 208.109C101.477 207.336 106.538 208.495 110.66 211.346C114.783 214.197 117.653 218.523 118.677 223.43C118.949 224.733 119.087 226.06 119.09 227.391Z" fill="#3F8FFE"/>
<path opacity="0.5" d="M99.5771 244.178C108.827 244.178 116.326 236.661 116.326 227.388C116.326 218.115 108.827 210.598 99.5771 210.598C90.3269 210.598 82.8281 218.115 82.8281 227.388C82.8281 236.661 90.3269 244.178 99.5771 244.178Z" fill="#18218A"/>
<path d="M105.181 208.647V209.357L99.6058 227.814L95.1328 208.342C98.4516 207.568 101.915 207.673 105.181 208.647Z" fill="#3F8FFE"/>
<path d="M105.141 246.146C101.948 247.092 98.5669 247.208 95.3164 246.484L99.6037 227.812L105.141 246.146Z" fill="#3F8FFE"/>
<path d="M119.093 227.393C119.096 229.429 118.781 231.453 118.161 233.392H118.082L99.625 227.818L118.714 223.436C118.973 224.738 119.1 226.064 119.093 227.393Z" fill="#3F8FFE"/>
<path d="M99.6064 227.813L81.1491 233.387H81.0047C79.9767 230.165 79.7934 226.732 80.4724 223.418L99.6064 227.813Z" fill="#3F8FFE"/>
<path d="M99.5791 229.529C100.762 229.529 101.721 228.57 101.721 227.388C101.721 226.205 100.762 225.246 99.5791 225.246C98.3963 225.246 97.4375 226.205 97.4375 227.388C97.4375 228.57 98.3963 229.529 99.5791 229.529Z" fill="#182A7C"/>
<path d="M318.167 251.705C331.583 251.705 342.459 240.829 342.459 227.413C342.459 213.997 331.583 203.121 318.167 203.121C304.751 203.121 293.875 213.997 293.875 227.413C293.875 240.829 304.751 251.705 318.167 251.705Z" fill="#182A7C"/>
<path d="M337.656 227.391C337.665 232.404 335.748 237.229 332.302 240.868C328.855 244.508 324.142 246.685 319.137 246.949C314.131 247.214 309.215 245.545 305.405 242.289C301.594 239.033 299.179 234.437 298.66 229.451C298.141 224.466 299.556 219.471 302.614 215.499C305.672 211.527 310.138 208.882 315.091 208.109C320.044 207.336 325.104 208.495 329.227 211.346C333.349 214.197 336.219 218.523 337.244 223.43C337.515 224.733 337.654 226.06 337.656 227.391Z" fill="#3F8FFE"/>
<path opacity="0.5" d="M318.144 244.178C327.394 244.178 334.893 236.661 334.893 227.388C334.893 218.115 327.394 210.598 318.144 210.598C308.893 210.598 301.395 218.115 301.395 227.388C301.395 236.661 308.893 244.178 318.144 244.178Z" fill="#18218A"/>
<path d="M323.743 208.647V209.357L318.168 227.814L313.695 208.342C317.014 207.568 320.477 207.673 323.743 208.647Z" fill="#3F8FFE"/>
<path d="M323.704 246.146C320.511 247.092 317.129 247.208 313.879 246.484L318.166 227.812L323.704 246.146Z" fill="#3F8FFE"/>
<path d="M337.657 227.391C337.66 229.427 337.345 231.451 336.724 233.391H336.629L318.168 227.812L337.257 223.43C337.523 224.733 337.658 226.06 337.657 227.391Z" fill="#3F8FFE"/>
<path d="M318.169 227.813L299.712 233.387H299.567C298.539 230.165 298.356 226.732 299.035 223.418L318.169 227.813Z" fill="#3F8FFE"/>
<path d="M318.146 229.529C319.328 229.529 320.287 228.57 320.287 227.388C320.287 226.205 319.328 225.246 318.146 225.246C316.963 225.246 316.004 226.205 316.004 227.388C316.004 228.57 316.963 229.529 318.146 229.529Z" fill="#182A7C"/>
<path opacity="0.2" d="M175.967 172.904L169.864 185.205H163.117L167.627 177.443C170.116 175.999 172.917 174.46 175.967 172.904Z" fill="white"/>
<path opacity="0.2" d="M192.709 165.521L186.631 185.192H177.66L184.964 168.629C187.456 167.548 190.048 166.508 192.709 165.521Z" fill="white"/>
<path opacity="0.2" d="M255.903 160.02L242.661 183.504L242.067 183.545C240.417 183.652 238.886 183.722 237.586 183.747L249.499 159.637L251.1 159.723C252.602 159.806 254.219 159.905 255.903 160.02Z" fill="white"/>
<path opacity="0.2" d="M155.704 185.121L148.145 237.192L211.282 235.809L221.648 185.348L155.704 185.121Z" stroke="white" stroke-miterlimit="10"/>
<path opacity="0.5" d="M273.01 239.727C272.098 240.139 269.948 241.229 269.639 242.941H128.674L125.785 242.916C126.399 241.886 126.95 240.819 127.436 239.723L273.01 239.727Z" fill="#18218A"/>
<path d="M151.139 277.353C152.101 276.458 153.004 275.401 153.285 274.118C153.566 272.835 153.017 271.292 151.787 270.817C150.413 270.289 148.94 271.23 147.826 272.208C146.712 273.186 145.432 274.271 143.976 274.065C144.726 273.384 145.287 272.521 145.605 271.559C145.922 270.597 145.985 269.57 145.787 268.576C145.723 268.166 145.549 267.781 145.284 267.462C144.521 266.637 143.134 266.996 142.222 267.64C139.334 269.703 138.508 273.635 138.488 277.192C138.195 275.909 138.442 274.572 138.434 273.256C138.426 271.939 138.067 270.483 136.957 269.773C136.266 269.402 135.488 269.219 134.704 269.245C133.396 269.195 131.939 269.327 131.048 270.285C129.938 271.473 130.223 273.466 131.192 274.774C132.162 276.082 133.627 276.903 134.976 277.807C136.059 278.453 136.983 279.334 137.679 280.386C137.761 280.533 137.829 280.688 137.881 280.848H146.076C147.914 279.917 149.617 278.741 151.139 277.353Z" fill="#61A199"/>
<path d="M322.418 284.296C323.175 283.68 323.726 282.848 323.999 281.911C324.205 280.962 323.801 279.828 322.893 279.481C321.878 279.093 320.793 279.795 319.971 280.508C319.15 281.222 318.205 282.031 317.128 281.878C317.682 281.377 318.096 280.74 318.33 280.031C318.565 279.321 318.611 278.563 318.465 277.83C318.419 277.527 318.29 277.241 318.094 277.005C317.529 276.403 316.509 276.663 315.833 277.137C313.687 278.647 313.089 281.561 313.076 284.185C312.862 283.24 313.043 282.254 313.035 281.296C313.027 280.339 312.763 279.233 311.946 278.73C311.439 278.458 310.87 278.323 310.295 278.338C309.329 278.301 308.257 278.4 307.596 279.105C306.771 279.98 306.99 281.453 307.704 282.406C308.417 283.36 309.499 283.975 310.497 284.643C311.298 285.119 311.98 285.769 312.494 286.545C312.555 286.653 312.605 286.766 312.643 286.884H318.688C320.042 286.193 321.297 285.323 322.418 284.296Z" fill="#61A199"/>
<path d="M349.239 297.421C349.995 296.805 350.546 295.973 350.819 295.036C351.025 294.087 350.621 292.953 349.713 292.606C348.698 292.218 347.613 292.92 346.792 293.633C345.97 294.347 345.026 295.156 343.949 295.003C344.502 294.502 344.916 293.865 345.151 293.156C345.385 292.446 345.431 291.688 345.286 290.955C345.239 290.652 345.111 290.366 344.914 290.13C344.349 289.528 343.33 289.788 342.653 290.262C340.507 291.772 339.909 294.686 339.896 297.31C339.682 296.365 339.863 295.379 339.855 294.421C339.847 293.464 339.583 292.358 338.766 291.855C338.259 291.583 337.69 291.448 337.115 291.463C336.15 291.426 335.077 291.525 334.417 292.23C333.591 293.105 333.81 294.578 334.524 295.531C335.238 296.485 336.319 297.1 337.317 297.768C338.118 298.244 338.8 298.894 339.315 299.67C339.375 299.778 339.425 299.891 339.463 300.009H345.508C346.863 299.318 348.118 298.448 349.239 297.421Z" fill="#61A199"/>
<path d="M271.692 269.835C271.692 269.835 270.252 270.619 269.596 266.179C269.183 263.291 267.983 257.336 267.194 253.47L267.095 252.979C267.321 252.908 267.543 252.826 267.76 252.731C267.76 252.731 263.171 234.988 264.219 231.06C265.267 227.131 264.219 220.092 264.219 220.092L261.467 210.824C261.467 210.824 254.65 208.472 252.03 207.82C249.41 207.168 242.069 202.596 242.069 202.596C242.195 202.742 242.313 202.895 242.424 203.054L242.131 202.876C241.595 202.376 241.111 201.823 240.687 201.226C242.151 199.668 243.099 197.697 243.402 195.581C244.381 193.724 244.843 191.637 244.74 189.54C244.637 187.443 243.972 185.412 242.816 183.66C243.262 183.102 243.601 182.467 243.818 181.787C243.906 181.475 243.944 181.152 243.93 180.829C243.978 180.311 243.865 179.791 243.609 179.339C243.352 178.887 242.963 178.524 242.494 178.3C242.181 178.17 241.845 178.104 241.506 178.108C241.167 178.111 240.832 178.184 240.522 178.32C239.94 178.584 239.482 179.08 238.846 179.212C237.786 179.43 236.878 178.58 236.044 177.949C234.749 176.984 233.204 176.411 231.592 176.298C230.892 176.22 230.184 176.313 229.529 176.571C228.907 176.923 228.332 177.355 227.821 177.854C225.931 179.377 223.282 179.802 220.909 180.631C220.455 180.788 219.952 181.044 219.869 181.456C219.852 181.538 219.852 181.622 219.869 181.704C219.85 181.809 219.858 181.917 219.894 182.018C215.47 182.76 211.142 186.119 211.142 186.119L210.415 186.792C210.178 186.663 209.908 186.607 209.639 186.63C209.37 186.653 209.114 186.753 208.901 186.92L207.44 188.067C207.176 188.274 206.997 188.57 206.936 188.9C206.875 189.23 206.937 189.57 207.11 189.858L196.427 199.761L196.196 199.976V199.938C196.196 199.938 187.943 206.206 187.943 210.642C187.943 213.849 190.419 215.825 191.768 216.679C190.558 217.818 189.643 219.234 189.103 220.806V220.847V220.905V220.95V221V221.041V221.086V221.127V221.169V221.206V221.243V221.276V221.313V221.342V221.387V221.429V221.453V221.478V221.66V221.709V221.808V221.878V221.949L189.07 222.13V222.204L189.049 222.328V222.378V222.497V222.584L189.02 222.749L188.983 222.955V222.997L188.954 223.17V223.253L188.921 223.442V223.492L188.884 223.706V223.801L188.789 224.342L188.74 224.635V224.684L188.686 224.986V225.027L188.632 225.332V225.357L188.575 225.679V225.749L188.517 226.067V226.137L188.463 226.45V226.488L188.401 226.842V226.909L188.261 227.701L188.191 228.113V228.175L188.121 228.588V228.617L187.968 229.442V229.512L187.894 229.925V229.983L187.733 230.853V230.89L187.65 231.332V231.369L187.485 232.269V232.326L187.403 232.772V232.805L187.229 233.725V233.775L187.143 234.229V234.262L186.965 235.194V235.231L186.879 235.685V235.722L186.123 236.655V236.696L186.033 237.146V237.171L185.847 238.087V238.112L185.756 238.557V238.582L185.575 239.457V239.494L185.488 239.907V239.944L185.311 240.769V240.798L185.224 241.211V241.252L185.051 242.032V242.052L184.968 242.42V242.457C184.91 242.704 184.854 242.944 184.799 243.175L184.716 243.513V243.542C184.661 243.768 184.608 243.983 184.555 244.19L184.477 244.487V244.52L184.403 244.805C184.073 246.043 183.784 246.868 183.577 247.062C183.369 247.281 183.205 247.539 183.095 247.821L183.062 247.904L183.029 247.994L183 248.085L182.864 248.209L182.835 248.304L182.81 248.39L182.785 248.489V248.58L182.765 248.679V248.77C182.765 248.836 182.754 248.902 182.732 248.968V249.051V249.162V249.249V249.36V249.447V249.558V249.645V249.756V249.839C182.732 249.975 182.732 250.107 182.732 250.251C182.732 250.276 182.732 250.301 182.732 250.33C182.732 250.359 182.732 250.4 182.732 250.437C182.732 250.474 182.732 250.491 182.732 250.516C182.732 250.54 182.732 250.586 182.732 250.619C182.732 250.652 182.732 250.668 182.732 250.697C182.732 250.726 182.732 250.763 182.732 250.796V250.87C182.732 250.903 182.732 250.936 182.732 250.969V251.035C182.732 251.096 182.732 251.155 182.732 251.213V251.865V251.956V252.216L183.97 252.591C183.97 252.591 184.593 252.934 185.554 253.379C185.418 257.543 185.034 263.179 183.99 266.629C181.663 266.749 175.915 266.992 174.875 266.575C173.563 266.051 165.174 264.747 167.798 270.751C168.896 273.268 171.285 275.166 173.687 276.528C173.389 276.626 173.086 276.704 172.779 276.763C170.641 277.176 170.047 277.89 170.13 278.624C169.977 279.862 172.081 281.245 172.255 281.331C172.519 281.463 181.428 282.899 183.528 282.243C185.628 281.587 194.145 280.023 194.145 280.023C194.145 280.023 194.145 279.928 194.145 279.763C194.145 279.763 194.03 277.197 193.708 274.762C194.673 274.622 195.726 274.494 196.749 274.415C196.88 275.033 197.151 275.612 197.54 276.109C197.929 276.606 198.426 277.007 198.994 277.283C204.63 280.172 206.467 276.239 206.467 276.239C206.467 276.239 214.088 277.704 218.346 276.652C218.792 277.065 219.172 277.358 219.44 277.556C220.822 278.55 224.544 279.231 228.708 279.28C229.816 279.39 230.933 279.358 232.034 279.186C233.871 279.064 235.694 278.778 237.48 278.331C242.494 277.032 243.596 272.369 243.835 270.252C244.033 270.194 244.173 269.988 244.248 269.6C244.347 269.389 244.406 269.16 244.421 268.927C244.531 267.969 244.71 267.021 244.957 266.088L251.147 266.435C253.912 271.453 256.354 275.443 256.354 275.443L260.547 274.919C258.682 273.426 257.048 271.666 255.698 269.695C253.602 266.563 253.602 251.539 253.602 251.539L253.837 242.391V242.486V242.044C254.225 244.755 257.299 252.62 257.646 252.735C257.898 252.818 258.145 252.892 258.389 252.962L258.612 253.548C260.361 258.186 264.801 270.054 265.115 271.927C265.527 274.279 281.893 275.191 285.561 274.015C289.229 272.839 271.692 269.835 271.692 269.835ZM213.234 217.876L207.234 226.888C205.08 223.174 202.835 219.757 200.805 217.496C206.128 217.674 212.264 217.863 213.234 217.876ZM212.322 194.768C212.555 194.878 212.813 194.921 213.069 194.893C213.325 194.864 213.567 194.765 213.77 194.607L214.282 194.195C214.543 193.992 214.722 193.701 214.787 193.377C214.851 193.053 214.797 192.716 214.633 192.428L214.938 192.127C217.051 191.77 219.135 191.264 221.177 190.613C221.255 192.476 221.778 194.293 222.704 195.911C222.886 196.947 223.226 197.949 223.711 198.882C222.77 198.804 221.747 198.75 220.769 198.758C219.914 198.741 219.06 198.795 218.214 198.919C215.07 199.443 214.674 205.187 214.674 205.187C214.674 205.187 208.356 207.407 204.56 207.486C204.079 207.488 203.6 207.417 203.141 207.275L202.757 207.25L203.273 205.839C203.273 205.839 203.05 205.909 202.683 205.984C202.801 205.805 202.925 205.623 203.054 205.439C205.456 201.993 209.615 197.553 212.322 194.776V194.768ZM199.34 264.483C198.857 265.31 198.423 266.164 198.04 267.042C196.551 267.331 194.521 267.491 193.444 266.571C192.958 266.173 192.347 265.959 191.719 265.965L191.744 265.915C192.486 264.492 193.118 261.302 193.613 258.001C196.014 258.001 198.296 255.991 198.296 255.991L201.321 257.027L201.432 257.237L201.507 257.374L201.626 257.596L201.701 257.737L201.82 257.955L201.899 258.096L202.018 258.31L202.097 258.451L202.212 258.661L202.291 258.801L202.41 259.012L202.489 259.148L202.608 259.354L202.683 259.486L202.802 259.693L202.877 259.821L202.992 260.023L203.066 260.151L203.186 260.353L203.256 260.468L203.376 260.666L203.446 260.782L203.566 260.98L203.628 261.083L203.751 261.285L203.797 261.36C204.011 261.71 204.209 262.045 204.412 262.358L204.44 262.404L204.556 262.585L204.606 262.664L204.709 262.829L204.766 262.915L204.861 263.064L204.919 263.159L205.006 263.295L205.068 263.39L205.15 263.518L205.208 263.609L205.282 263.724L205.34 263.815L205.41 263.922L205.468 264.013L205.534 264.112L205.592 264.199C203.526 264.539 201.428 264.635 199.34 264.483Z" fill="url(#paint0_linear)"/>
<path d="M284.11 273.274C280.533 274.425 264.559 273.53 264.176 271.211C263.87 269.366 259.542 257.759 257.833 253.22L257.148 251.404L265.455 249.613C265.455 249.613 265.76 251.07 266.181 253.145C266.949 256.933 268.108 262.781 268.521 265.586C269.16 269.932 270.584 269.164 270.584 269.164C270.584 269.164 287.675 272.123 284.11 273.274Z" fill="#FFBDC6"/>
<path d="M238.986 197.869C238.986 197.869 238.346 201.703 243.843 205.297C249.339 208.891 244.61 221.782 244.61 221.782L240.546 222.008C237.964 222.153 235.428 221.292 233.468 219.605C231.509 217.918 230.28 215.537 230.04 212.963C230.04 212.963 232.338 209.25 228.121 199.672L238.986 197.869Z" fill="#FFBDC6"/>
<path d="M215.23 193.152C215.23 193.152 207.32 200.864 203.643 206.179C203.208 206.795 202.809 207.437 202.451 208.102C199.769 213.214 193.53 204.904 195.688 202.032L197.177 200.641L211.521 187.272C211.521 187.272 221.362 179.605 226.343 185.101C231.323 190.598 215.23 193.152 215.23 193.152Z" fill="#FFBDC6"/>
<path d="M232.801 202.67C239.152 202.67 244.301 197.522 244.301 191.17C244.301 184.819 239.152 179.67 232.801 179.67C226.45 179.67 221.301 184.819 221.301 191.17C221.301 197.522 226.45 202.67 232.801 202.67Z" fill="#A66477"/>
<path d="M185.971 265.986C185.971 265.986 177.409 266.498 176.13 265.986C174.851 265.475 166.676 264.2 169.247 270.08C171.818 275.96 181.515 278.386 181.515 278.386L188.53 276.595L185.971 265.986Z" fill="#7679B4"/>
<path opacity="0.05" d="M185.971 265.986C185.971 265.986 177.409 266.498 176.13 265.986C174.851 265.475 166.676 264.2 169.247 270.08C171.818 275.96 181.515 278.386 181.515 278.386L188.53 276.595L185.971 265.986Z" fill="black"/>
<path d="M216.51 240.816L233.697 247.798L243.472 268.562C243.472 268.562 243.6 275.845 237.213 277.508C230.825 279.171 221.879 278.404 219.576 276.741C217.274 275.078 207.82 265.24 207.82 265.24L216.51 240.816Z" fill="#7679B4"/>
<path opacity="0.05" d="M215.343 240.816L230.218 246.391L238.682 263.008C238.682 263.008 238.793 268.839 233.264 270.167C227.734 271.496 219.989 270.881 217.996 269.552C216.003 268.224 207.82 260.347 207.82 260.347L215.343 240.816Z" fill="black"/>
<path d="M200.537 265.986C200.537 265.986 196.064 267.521 194.278 265.986C192.491 264.451 189.293 266.37 189.293 266.37L190.704 274.676C190.704 274.676 197.092 273.269 200.546 273.653L200.537 265.986Z" fill="#FFBDC6"/>
<path opacity="0.05" d="M200.537 265.986C200.537 265.986 196.064 267.521 194.278 265.986C192.491 264.451 189.293 266.37 189.293 266.37L190.704 274.676C190.704 274.676 197.092 273.269 200.546 273.653L200.537 265.986Z" fill="black"/>
<path d="M203.084 257.045L199.003 255.638C199.003 255.638 194.53 259.599 191.575 256.277C188.621 252.956 194.257 239.153 194.257 239.153L200.261 229.439L204.606 243.114L208.568 249.758L203.084 257.045Z" fill="#565388"/>
<path opacity="0.05" d="M203.084 257.045L199.003 255.638C199.003 255.638 194.53 259.599 191.575 256.277C188.621 252.956 194.257 239.153 194.257 239.153L200.261 229.439L204.606 243.114L208.568 249.758L203.084 257.045Z" fill="black"/>
<path d="M242.063 256.277L251.265 257.552L253.056 265.987L241.684 265.347L242.063 256.277Z" fill="#565388"/>
<path opacity="0.05" d="M242.063 256.277L251.265 257.552L253.056 265.987L241.684 265.347L242.063 256.277Z" fill="black"/>
<path opacity="0.1" d="M229.161 210.02C229.161 210.02 232.995 224.714 245.254 214.109L248.576 256.276C248.576 256.276 244.487 262.792 243.847 268.655C243.208 274.519 232.091 250.499 225.448 250.384C218.804 250.268 212.223 240.992 212.223 240.992L219.7 225.592L229.161 210.02Z" fill="black"/>
<path d="M229.29 209.637C229.29 209.637 233.124 224.331 245.383 213.726L248.705 255.893C248.705 255.893 244.616 262.409 243.976 268.273C243.337 274.136 232.22 250.116 225.577 250.001C218.933 249.885 212.352 240.609 212.352 240.609L219.829 225.21L229.29 209.637Z" fill="#F2F1F2"/>
<path opacity="0.1" d="M227.243 200.178C227.243 200.178 221.879 199.283 218.809 199.795C215.739 200.306 215.36 205.926 215.36 205.926C215.36 205.926 206.669 208.992 203.731 207.99C203.731 207.99 189.289 206.966 189.289 211.311C189.289 215.656 193.894 217.674 193.894 217.674C193.894 217.674 213.944 218.351 214.084 218.314C218.685 217.035 213.957 218.314 213.957 218.314L205.65 230.837L213.317 241.442L221.495 235.438C221.495 235.438 222.519 229.814 225.209 227.004C227.124 224.994 229.629 215.949 230.904 210.944C231.172 209.89 231.228 208.793 231.068 207.717C230.909 206.641 230.537 205.607 229.975 204.676L227.243 200.178Z" fill="black"/>
<path opacity="0.1" d="M203.643 206.178C203.208 206.795 202.809 207.437 202.451 208.101C199.769 213.214 193.53 204.903 195.688 202.031L197.177 200.641C196.633 207.235 202.001 206.533 203.643 206.178Z" fill="black"/>
<path opacity="0.1" d="M213.957 217.815H213.812C213.812 217.815 218.558 216.535 213.957 217.815Z" fill="black"/>
<path d="M226.86 200.178C226.86 200.178 221.496 199.283 218.426 199.795C215.356 200.306 214.976 205.926 214.976 205.926C214.976 205.926 206.286 208.992 203.348 207.99L203.86 206.583C203.86 206.583 196.069 209.009 196.961 200.818C196.961 200.818 188.91 206.95 188.91 211.295C188.91 215.64 193.511 217.674 193.511 217.674C193.511 217.674 213.561 218.351 213.701 218.314C218.302 217.035 213.573 218.314 213.573 218.314L205.267 230.837L212.934 241.442L221.112 235.438C221.112 235.438 222.136 229.814 224.826 227.004C226.741 224.994 229.245 215.949 230.521 210.944C230.789 209.89 230.845 208.793 230.685 207.717C230.526 206.641 230.154 205.607 229.592 204.676L226.86 200.178Z" fill="#565388"/>
<path opacity="0.1" d="M253.185 241.711V242.412C253.131 242.182 253.131 241.942 253.185 241.711Z" fill="black"/>
<path opacity="0.1" d="M266.181 253.161C263.465 253.998 260.564 254.023 257.833 253.235L257.148 251.42L265.455 249.629C265.455 249.629 265.756 251.098 266.181 253.161Z" fill="black"/>
<path opacity="0.1" d="M241.301 203.373C241.301 203.373 248.456 207.846 251.014 208.486C253.573 209.125 260.216 211.424 260.216 211.424L262.898 220.502C262.898 220.502 263.922 227.401 262.898 231.23C261.875 235.059 252.293 242.347 252.805 241.195L252.549 251.289C252.549 251.289 252.549 265.983 254.612 269.032C256.676 272.081 250.713 266.028 250.713 266.028C250.713 266.028 243.492 255.357 242.601 248.586C241.709 241.814 243.108 215.769 243.108 215.769L241.829 213.978C241.829 213.978 244.495 207.079 241.301 203.373Z" fill="black"/>
<path d="M241.684 203.373C241.684 203.373 248.839 207.846 251.397 208.486C253.955 209.125 260.599 211.424 260.599 211.424L263.281 220.502C263.281 220.502 264.304 227.401 263.281 231.23C262.258 235.059 266.731 252.444 266.731 252.444C266.731 252.444 262.604 254.35 256.889 252.444C256.506 252.316 252.672 242.351 253.176 241.2L252.92 251.293C252.92 251.293 252.92 265.987 254.983 269.036C256.298 270.964 257.892 272.687 259.712 274.149L255.623 274.66C255.623 274.66 243.854 255.382 242.959 248.623C242.063 241.864 243.47 215.781 243.47 215.781L242.191 213.99C242.191 213.99 244.877 207.079 241.684 203.373Z" fill="#565388"/>
<path d="M206.797 264.717C206.797 264.717 198.235 252.338 198.618 246.561C198.618 246.561 197.595 254.483 196.448 254.995C195.301 255.507 183.796 251.925 183.796 251.925C183.796 251.925 183.285 248.211 184.564 246.94C185.843 245.669 189.804 222.021 189.804 222.021C189.804 222.021 191.211 215.633 197.343 215.25C203.475 214.866 217.278 246.045 217.278 246.045C217.278 246.045 219.32 264.717 206.797 264.717Z" fill="#7679B4"/>
<path d="M186.612 247.842C186.612 247.842 186.868 265.73 183.674 268.672C180.48 271.614 193.003 273.145 193.003 273.145C193.003 273.145 190.833 268.8 192.62 265.35C194.406 261.9 195.558 247.842 195.558 247.842H186.612Z" fill="#FFBDC6"/>
<path opacity="0.05" d="M187.249 268.429C187.249 268.429 185.97 265.235 182.52 267.789C182.52 267.789 179.455 274.944 174.086 275.968C168.718 276.991 173.319 280.057 173.574 280.185C173.83 280.313 182.52 281.72 184.563 281.08C186.606 280.44 194.912 278.91 194.912 278.91C194.912 278.91 194.528 270.475 193.261 269.832C191.995 269.188 192.618 273.657 187.249 268.429Z" fill="black"/>
<path d="M187.249 268.673C187.249 268.673 185.97 265.479 182.52 268.033C182.52 268.033 179.454 275.188 174.086 276.212C168.718 277.235 173.319 280.301 173.574 280.429C173.83 280.557 182.52 281.964 184.563 281.324C186.606 280.685 194.916 279.158 194.916 279.158C194.916 279.158 194.532 270.724 193.265 270.08C191.999 269.436 192.618 273.909 187.249 268.673Z" fill="#7679B4"/>
<path d="M211.31 188.377C212.389 190.053 213.551 191.674 214.792 193.234C214.911 193.372 215 193.533 215.054 193.707C215.109 193.881 215.128 194.064 215.11 194.245C215.091 194.426 215.037 194.602 214.949 194.761C214.861 194.921 214.742 195.061 214.599 195.173L214.099 195.565C213.957 195.677 213.793 195.759 213.618 195.806C213.443 195.853 213.26 195.864 213.081 195.839C212.901 195.814 212.729 195.753 212.573 195.66C212.418 195.567 212.283 195.443 212.176 195.297C211.058 193.747 209.658 192.421 208.05 191.389C207.866 191.275 207.713 191.118 207.603 190.932C207.492 190.746 207.428 190.536 207.416 190.32C207.404 190.104 207.444 189.888 207.533 189.69C207.622 189.493 207.756 189.32 207.926 189.186L209.35 188.063C209.496 187.948 209.665 187.864 209.846 187.817C210.026 187.77 210.214 187.761 210.399 187.79C210.583 187.82 210.759 187.887 210.916 187.988C211.073 188.089 211.207 188.221 211.31 188.377Z" fill="#565388"/>
<path opacity="0.1" d="M240.464 202.408C238.813 200.085 239.127 198.244 239.127 198.244L228.254 200.052C229.009 201.737 229.63 203.48 230.111 205.263C231.931 205.795 233.864 205.81 235.693 205.305C237.521 204.801 239.173 203.798 240.464 202.408Z" fill="black"/>
<path d="M232.869 205.286C238.514 205.286 243.09 200.71 243.09 195.065C243.09 189.42 238.514 184.844 232.869 184.844C227.225 184.844 222.648 189.42 222.648 195.065C222.648 200.71 227.225 205.286 232.869 205.286Z" fill="#FFBDC6"/>
<path opacity="0.1" d="M228.37 189.738C229.336 189.578 230.194 189.012 231.172 188.963C232.41 188.901 233.528 189.693 234.399 190.51C235.27 191.327 236.115 192.26 237.312 192.615C238.077 192.794 238.866 192.847 239.648 192.771C240.082 192.793 240.514 192.684 240.886 192.458C241.073 192.284 241.214 192.067 241.298 191.826C241.632 191.058 241.801 190.228 241.794 189.39C241.788 188.552 241.606 187.725 241.261 186.961C241.164 186.803 241.124 186.617 241.146 186.433C241.183 186.324 241.243 186.224 241.323 186.14C242.148 185.166 243.019 184.193 243.353 183.013C243.687 181.832 243.279 180.38 242.062 179.856C241.758 179.725 241.431 179.658 241.1 179.658C240.769 179.658 240.442 179.725 240.139 179.856C239.569 180.116 239.128 180.599 238.488 180.727C237.452 180.941 236.565 180.108 235.756 179.489C234.496 178.544 232.991 177.983 231.42 177.871C230.732 177.792 230.037 177.884 229.394 178.139C228.793 178.48 228.238 178.896 227.743 179.377C225.899 180.867 223.315 181.284 221.005 182.096C220.563 182.253 220.072 182.484 219.99 182.922C219.907 183.359 220.402 183.801 220.897 183.99C221.393 184.18 221.962 184.304 222.292 184.688C222.705 185.183 222.573 185.884 222.647 186.508C222.8 187.745 223.885 188.418 225.086 188.777C226.08 189.095 227.384 189.904 228.37 189.738Z" fill="black"/>
<path d="M228.371 189.483C229.337 189.322 230.195 188.757 231.173 188.707C232.411 188.645 233.529 189.437 234.4 190.255C235.27 191.072 236.116 192.004 237.313 192.359C238.078 192.538 238.867 192.591 239.648 192.516C240.083 192.538 240.515 192.428 240.886 192.202C241.073 192.029 241.215 191.812 241.299 191.571C241.633 190.802 241.802 189.972 241.795 189.134C241.789 188.297 241.607 187.469 241.262 186.706C241.165 186.548 241.124 186.362 241.146 186.178C241.184 186.068 241.244 185.968 241.324 185.885C242.149 184.911 243.02 183.937 243.354 182.757C243.688 181.577 243.28 180.124 242.062 179.6C241.759 179.469 241.432 179.402 241.101 179.402C240.77 179.402 240.443 179.469 240.139 179.6C239.57 179.86 239.129 180.343 238.489 180.471C237.453 180.685 236.566 179.852 235.757 179.233C234.51 178.311 233.026 177.761 231.478 177.648C230.791 177.57 230.095 177.662 229.452 177.917C228.851 178.257 228.297 178.673 227.802 179.155C225.957 180.644 223.374 181.061 221.063 181.874C220.622 182.031 220.131 182.262 220.048 182.699C219.966 183.136 220.461 183.578 220.956 183.768C221.451 183.958 222.021 184.081 222.351 184.465C222.763 184.96 222.631 185.662 222.706 186.285C222.858 187.523 223.943 188.195 225.144 188.554C226.081 188.839 227.385 189.648 228.371 189.483Z" fill="#A66477"/>
<path opacity="0.05" d="M220.121 238.654C220.121 238.654 227.421 239.892 229.245 243.833C231.068 247.774 242.036 258.436 242.036 258.436" fill="black"/>
<g opacity="0.05">
<path opacity="0.05" d="M196.704 254.104C195.553 254.615 184.053 251.038 184.053 251.038C183.912 249.926 183.924 248.8 184.09 247.691C183.43 249.284 183.797 251.933 183.797 251.933C183.797 251.933 195.297 255.511 196.449 254.999C196.828 254.83 197.196 253.848 197.517 252.606C197.262 253.402 196.989 253.988 196.704 254.104Z" fill="black"/>
<path opacity="0.05" d="M190.042 221.236C189.948 221.496 189.868 221.76 189.803 222.029C189.803 222.029 187.03 238.588 185.375 244.724C186.906 239.743 189.794 222.709 190.042 221.236Z" fill="black"/>
<path opacity="0.05" d="M207.055 263.816C207.055 263.816 198.493 251.437 198.877 245.66C198.877 245.66 198.786 246.378 198.625 247.393C199.013 253.434 206.799 264.716 206.799 264.716C212.754 264.716 215.415 260.499 216.566 256.071C215.296 260.148 212.609 263.816 207.055 263.816Z" fill="black"/>
</g>
<path d="M184.997 252.299C184.997 252.299 192.804 256.599 195.618 254.552C198.433 252.506 196.642 249.312 196.642 249.312L194.467 245.734H187.184L184.758 249.952L184.997 252.299Z" fill="#7679B4"/>
<path d="M238.234 269.184C238.234 269.184 238.746 258.963 225.711 259.091C212.675 259.219 225.199 259.091 225.199 259.091C225.199 259.091 220.086 257.556 213.699 261.154C207.311 264.752 200.024 263.964 200.024 263.964C200.024 263.964 194.144 273.678 199.64 276.488C205.136 279.298 206.923 275.444 206.923 275.444C206.923 275.444 218.168 277.614 220.726 274.676C222.552 276.486 224.87 277.719 227.392 278.223C229.913 278.726 232.527 278.477 234.908 277.507C234.908 277.507 241.3 274.676 238.234 269.184Z" fill="#7679B4"/>
</g>
<defs>
<linearGradient id="paint0_linear" x1="226.669" y1="282.408" x2="226.669" y2="176.29" gradientUnits="userSpaceOnUse">
<stop stop-color="#808080" stop-opacity="0.25"/>
<stop offset="0.54" stop-color="#808080" stop-opacity="0.12"/>
<stop offset="1" stop-color="#808080" stop-opacity="0.1"/>
</linearGradient>
<clipPath id="clip0">
<rect width="408.643" height="300" fill="white"/>
</clipPath>
</defs>
</svg>
