<svg width="392" height="300" viewBox="0 0 392 300" fill="none" xmlns="http://www.w3.org/2000/svg">
<g clip-path="url(#clip0)">
<path opacity="0.1" d="M66.805 44.1152C64.7107 46.6567 63.9043 50.23 63.0024 53.5893C55.7411 80.6626 37.8476 102.439 17.47 117.994C8.84051 124.582 -1.6655 133.418 0.222451 145.231C1.23904 151.575 5.69902 156.245 9.01248 161.412C15.9643 172.232 18.2191 186.938 14.9056 199.89C11.1374 214.627 0.604626 228.377 3.86458 243.278C5.87482 252.45 12.7005 258.978 19.2624 264.588C29.4996 273.335 40.063 281.529 50.9524 289.17C58.252 294.291 66.0178 299.275 74.525 299.924C82.0156 300.498 89.3534 297.65 96.4657 294.841C102.68 292.384 109.051 289.827 114.069 284.905C117.344 281.691 119.954 277.544 123.592 274.915C132.138 268.739 143.114 272.652 152.913 275.297C176.035 281.503 200.78 279.237 222.782 268.899C256.532 253.039 282.256 219.732 315.269 201.862C329.463 194.176 344.903 189.407 358.046 179.508C365.45 173.873 371.813 166.987 376.849 159.161C386.785 143.832 392.159 124.288 390.607 105.156C389.055 86.0246 380.361 67.5884 366.706 56.7881C352.087 45.2273 333.625 43.068 316.992 36.1277C299.825 28.9505 284.546 16.6215 267.543 8.93596C253.776 2.72695 238.793 -0.320421 223.694 0.0175163C208.595 0.355454 193.764 4.07012 180.288 10.8889C161.772 20.2522 143.011 42.0973 122.389 43.756C107.698 44.9025 78.278 30.1964 66.805 44.1152Z" fill="#61A199"/>
<path d="M331.779 132.645C331.779 132.645 326.214 113.746 332.822 99.8389C335.632 94.0225 336.48 87.4514 335.237 81.1123C334.624 78.1074 333.736 75.1651 332.585 72.3223" stroke="#535461" stroke-width="2" stroke-miterlimit="10"/>
<path d="M336.716 63.5376C336.716 65.8536 332.512 72.5684 332.512 72.5684C332.512 72.5684 328.308 65.8536 328.308 63.5376C328.266 62.961 328.342 62.3818 328.534 61.8361C328.725 61.2905 329.027 60.7902 329.42 60.3665C329.814 59.9429 330.291 59.6049 330.821 59.3738C331.351 59.1427 331.923 59.0234 332.501 59.0234C333.079 59.0234 333.651 59.1427 334.181 59.3738C334.711 59.6049 335.188 59.9429 335.581 60.3665C335.975 60.7902 336.276 61.2905 336.468 61.8361C336.659 62.3818 336.736 62.961 336.693 63.5376H336.716Z" fill="#61A199"/>
<path d="M343.63 76.3633C342.372 78.3086 335.188 81.6679 335.188 81.6679C335.188 81.6679 335.317 73.753 336.575 71.8078C337.214 70.9575 338.152 70.3814 339.2 70.1955C340.248 70.0097 341.327 70.2279 342.22 70.8063C343.113 71.3847 343.753 72.2801 344.012 73.3121C344.271 74.344 344.129 75.4358 343.614 76.3671L343.63 76.3633Z" fill="#61A199"/>
<path d="M343.328 98.2885C341.261 99.3318 333.392 98.6095 333.392 98.6095C333.392 98.6095 337.5 91.8412 339.568 90.7979C340.548 90.3909 341.646 90.3698 342.641 90.7388C343.636 91.1079 344.455 91.8397 344.933 92.7874C345.411 93.7351 345.513 94.8286 345.218 95.8482C344.923 96.8679 344.253 97.7383 343.343 98.2847L343.328 98.2885Z" fill="#61A199"/>
<path d="M339.364 114.841C337.503 116.217 329.607 116.84 329.607 116.84C329.607 116.84 332.512 109.475 334.377 108.096C335.274 107.55 336.344 107.361 337.374 107.564C338.404 107.767 339.321 108.349 339.944 109.194C340.567 110.04 340.851 111.088 340.74 112.132C340.63 113.176 340.132 114.141 339.345 114.837L339.364 114.841Z" fill="#61A199"/>
<path d="M326.396 82.1122C328.058 83.725 335.797 85.3989 335.797 85.3989C335.797 85.3989 333.887 77.7134 332.239 76.0968C331.855 75.666 331.386 75.3189 330.862 75.0773C330.337 74.8356 329.769 74.7046 329.192 74.6924C328.614 74.6801 328.041 74.7869 327.507 75.006C326.973 75.2252 326.489 75.552 326.087 75.9661C325.685 76.3803 325.372 76.8728 325.168 77.4131C324.965 77.9534 324.875 78.5298 324.904 79.1064C324.933 79.6831 325.08 80.2475 325.337 80.7647C325.594 81.2818 325.954 81.7405 326.396 82.1122Z" fill="#61A199"/>
<path d="M322.005 101.513C324.073 102.556 331.942 101.834 331.942 101.834C331.942 101.834 327.834 95.0658 325.766 94.0225C324.786 93.6155 323.688 93.5944 322.693 93.9634C321.697 94.3325 320.879 95.0643 320.401 96.012C319.923 96.9598 319.821 98.0532 320.116 99.0729C320.41 100.093 321.08 100.963 321.99 101.509L322.005 101.513Z" fill="#61A199"/>
<path d="M320.324 120.955C322.185 122.331 330.081 122.953 330.081 122.953C330.081 122.953 327.176 115.589 325.311 114.209C324.874 113.823 324.361 113.531 323.805 113.354C323.25 113.176 322.663 113.116 322.082 113.178C321.502 113.239 320.941 113.421 320.435 113.711C319.928 114.002 319.488 114.394 319.142 114.864C318.796 115.334 318.551 115.871 318.424 116.44C318.296 117.01 318.289 117.6 318.402 118.172C318.515 118.745 318.746 119.287 319.08 119.766C319.414 120.244 319.844 120.648 320.343 120.951L320.324 120.955Z" fill="#61A199"/>
<path opacity="0.1" d="M336.716 63.5376C336.716 65.8536 332.512 72.5684 332.512 72.5684C332.512 72.5684 328.308 65.8536 328.308 63.5376C328.266 62.961 328.342 62.3818 328.534 61.8361C328.725 61.2905 329.027 60.7902 329.42 60.3665C329.814 59.9429 330.291 59.6049 330.821 59.3738C331.351 59.1427 331.923 59.0234 332.501 59.0234C333.079 59.0234 333.651 59.1427 334.181 59.3738C334.711 59.6049 335.188 59.9429 335.581 60.3665C335.975 60.7902 336.276 61.2905 336.468 61.8361C336.659 62.3818 336.736 62.961 336.693 63.5376H336.716Z" fill="#61A199"/>
<path opacity="0.1" d="M343.63 76.3633C342.372 78.3086 335.188 81.6679 335.188 81.6679C335.188 81.6679 335.317 73.753 336.575 71.8078C337.214 70.9575 338.152 70.3814 339.2 70.1955C340.248 70.0097 341.327 70.2279 342.22 70.8063C343.113 71.3847 343.753 72.2801 344.012 73.3121C344.271 74.344 344.129 75.4358 343.614 76.3671L343.63 76.3633Z" fill="#61A199"/>
<path opacity="0.1" d="M343.328 98.2885C341.261 99.3318 333.392 98.6095 333.392 98.6095C333.392 98.6095 337.5 91.8412 339.568 90.7979C340.548 90.3909 341.646 90.3698 342.641 90.7388C343.636 91.1079 344.455 91.8397 344.933 92.7874C345.411 93.7351 345.513 94.8286 345.218 95.8482C344.923 96.8679 344.253 97.7383 343.343 98.2847L343.328 98.2885Z" fill="#61A199"/>
<path opacity="0.1" d="M339.364 114.841C337.503 116.217 329.607 116.84 329.607 116.84C329.607 116.84 332.512 109.475 334.377 108.096C335.274 107.55 336.344 107.361 337.374 107.564C338.404 107.767 339.321 108.349 339.944 109.194C340.567 110.04 340.851 111.088 340.74 112.132C340.63 113.176 340.132 114.141 339.345 114.837L339.364 114.841Z" fill="#61A199"/>
<path opacity="0.1" d="M326.396 82.1122C328.058 83.725 335.797 85.3989 335.797 85.3989C335.797 85.3989 333.887 77.7134 332.239 76.0968C331.855 75.666 331.386 75.3189 330.862 75.0773C330.337 74.8356 329.769 74.7046 329.192 74.6924C328.614 74.6801 328.041 74.7869 327.507 75.006C326.973 75.2252 326.489 75.552 326.087 75.9661C325.685 76.3803 325.372 76.8728 325.168 77.4131C324.965 77.9534 324.875 78.5298 324.904 79.1064C324.933 79.6831 325.08 80.2475 325.337 80.7647C325.594 81.2818 325.954 81.7405 326.396 82.1122Z" fill="#61A199"/>
<path opacity="0.1" d="M322.005 101.513C324.073 102.556 331.942 101.834 331.942 101.834C331.942 101.834 327.834 95.0658 325.766 94.0225C324.786 93.6155 323.688 93.5944 322.693 93.9634C321.697 94.3325 320.879 95.0643 320.401 96.012C319.923 96.9598 319.821 98.0532 320.116 99.0729C320.41 100.093 321.08 100.963 321.99 101.509L322.005 101.513Z" fill="#61A199"/>
<path opacity="0.1" d="M320.324 120.955C322.185 122.331 330.081 122.953 330.081 122.953C330.081 122.953 327.176 115.589 325.311 114.209C324.874 113.823 324.361 113.531 323.805 113.354C323.25 113.176 322.663 113.116 322.082 113.178C321.502 113.239 320.941 113.421 320.435 113.711C319.928 114.002 319.488 114.394 319.142 114.864C318.796 115.334 318.551 115.871 318.424 116.44C318.296 117.01 318.289 117.6 318.402 118.172C318.515 118.745 318.746 119.287 319.08 119.766C319.414 120.244 319.844 120.648 320.343 120.951L320.324 120.955Z" fill="#61A199"/>
<path d="M355.09 162.838C355.09 162.838 349.526 143.94 356.133 130.032C358.944 124.216 359.791 117.645 358.549 111.306C357.935 108.301 357.047 105.358 355.897 102.516" stroke="#535461" stroke-width="2" stroke-miterlimit="10"/>
<path d="M360.029 93.729C360.029 96.045 355.825 102.76 355.825 102.76C355.825 102.76 351.621 96.045 351.621 93.729C351.578 93.1524 351.655 92.5732 351.846 92.0275C352.038 91.4819 352.339 90.9816 352.733 90.5579C353.126 90.1343 353.603 89.7963 354.133 89.5652C354.663 89.3341 355.235 89.2148 355.813 89.2148C356.391 89.2148 356.963 89.3341 357.493 89.5652C358.024 89.7963 358.5 90.1343 358.894 90.5579C359.287 90.9816 359.589 91.4819 359.78 92.0275C359.972 92.5732 360.048 93.1524 360.006 93.729H360.029Z" fill="#61A199"/>
<path d="M366.943 106.553C365.685 108.499 358.516 111.854 358.516 111.854C358.516 111.854 358.646 103.939 359.903 101.994C360.182 101.489 360.562 101.047 361.019 100.695C361.476 100.343 362.001 100.089 362.56 99.9486C363.12 99.8082 363.702 99.7845 364.271 99.879C364.84 99.9735 365.384 100.184 365.868 100.498C366.352 100.811 366.767 101.221 367.086 101.702C367.405 102.183 367.621 102.724 367.722 103.292C367.823 103.86 367.806 104.443 367.672 105.004C367.538 105.565 367.289 106.092 366.943 106.553Z" fill="#61A199"/>
<path d="M366.641 128.479C364.573 129.522 356.704 128.8 356.704 128.8C356.704 128.8 360.812 122.032 362.88 120.988C363.376 120.691 363.927 120.499 364.501 120.424C365.074 120.349 365.656 120.394 366.212 120.554C366.767 120.715 367.283 120.988 367.728 121.357C368.173 121.726 368.537 122.183 368.798 122.7C369.058 123.216 369.209 123.78 369.241 124.357C369.274 124.934 369.187 125.512 368.986 126.054C368.785 126.596 368.474 127.091 368.073 127.508C367.672 127.924 367.19 128.254 366.656 128.475L366.641 128.479Z" fill="#61A199"/>
<path d="M362.677 145.032C360.816 146.408 352.92 147.031 352.92 147.031C352.92 147.031 355.824 139.667 357.689 138.287C358.587 137.742 359.656 137.552 360.686 137.755C361.717 137.959 362.634 138.54 363.257 139.386C363.88 140.231 364.164 141.279 364.053 142.323C363.942 143.368 363.444 144.333 362.658 145.029L362.677 145.032Z" fill="#61A199"/>
<path d="M349.708 112.305C351.371 113.918 359.11 115.592 359.11 115.592C359.11 115.592 357.199 107.906 355.552 106.29C354.739 105.605 353.696 105.255 352.634 105.308C351.573 105.361 350.571 105.815 349.83 106.577C349.089 107.34 348.665 108.355 348.643 109.417C348.62 110.48 349.001 111.512 349.708 112.305Z" fill="#61A199"/>
<path d="M345.317 131.705C347.385 132.748 355.254 132.026 355.254 132.026C355.254 132.026 351.145 125.257 349.078 124.214C348.097 123.807 346.999 123.786 346.004 124.155C345.009 124.524 344.19 125.256 343.712 126.203C343.234 127.151 343.132 128.245 343.427 129.264C343.722 130.284 344.392 131.154 345.302 131.701L345.317 131.705Z" fill="#61A199"/>
<path d="M343.637 151.148C345.499 152.524 353.395 153.147 353.395 153.147C353.395 153.147 350.49 145.782 348.625 144.403C348.188 144.016 347.675 143.725 347.119 143.547C346.563 143.369 345.976 143.31 345.396 143.371C344.816 143.433 344.254 143.615 343.748 143.905C343.242 144.195 342.802 144.588 342.455 145.058C342.109 145.527 341.865 146.064 341.737 146.634C341.61 147.203 341.602 147.793 341.715 148.365C341.828 148.938 342.059 149.481 342.393 149.959C342.728 150.438 343.158 150.841 343.657 151.144L343.637 151.148Z" fill="#61A199"/>
<path opacity="0.1" d="M360.029 93.729C360.029 96.045 355.825 102.76 355.825 102.76C355.825 102.76 351.621 96.045 351.621 93.729C351.578 93.1524 351.655 92.5732 351.846 92.0275C352.038 91.4819 352.339 90.9816 352.733 90.5579C353.126 90.1343 353.603 89.7963 354.133 89.5652C354.663 89.3341 355.235 89.2148 355.813 89.2148C356.391 89.2148 356.963 89.3341 357.493 89.5652C358.024 89.7963 358.5 90.1343 358.894 90.5579C359.287 90.9816 359.589 91.4819 359.78 92.0275C359.972 92.5732 360.048 93.1524 360.006 93.729H360.029Z" fill="#61A199"/>
<path opacity="0.1" d="M366.943 106.553C365.685 108.499 358.516 111.854 358.516 111.854C358.516 111.854 358.646 103.939 359.903 101.994C360.182 101.489 360.562 101.047 361.019 100.695C361.476 100.343 362.001 100.089 362.56 99.9486C363.12 99.8082 363.702 99.7845 364.271 99.879C364.84 99.9735 365.384 100.184 365.868 100.498C366.352 100.811 366.767 101.221 367.086 101.702C367.405 102.183 367.621 102.724 367.722 103.292C367.823 103.86 367.806 104.443 367.672 105.004C367.538 105.565 367.289 106.092 366.943 106.553Z" fill="#61A199"/>
<path opacity="0.1" d="M366.641 128.479C364.573 129.522 356.704 128.8 356.704 128.8C356.704 128.8 360.812 122.032 362.88 120.988C363.376 120.691 363.927 120.499 364.501 120.424C365.074 120.349 365.656 120.394 366.212 120.554C366.767 120.715 367.283 120.988 367.728 121.357C368.173 121.726 368.537 122.183 368.798 122.7C369.058 123.216 369.209 123.78 369.241 124.357C369.274 124.934 369.187 125.512 368.986 126.054C368.785 126.596 368.474 127.091 368.073 127.508C367.672 127.924 367.19 128.254 366.656 128.475L366.641 128.479Z" fill="#61A199"/>
<path opacity="0.1" d="M362.677 145.032C360.816 146.408 352.92 147.031 352.92 147.031C352.92 147.031 355.824 139.667 357.689 138.287C358.587 137.742 359.656 137.552 360.686 137.755C361.717 137.959 362.634 138.54 363.257 139.386C363.88 140.231 364.164 141.279 364.053 142.323C363.942 143.368 363.444 144.333 362.658 145.029L362.677 145.032Z" fill="#61A199"/>
<path opacity="0.1" d="M349.708 112.305C351.371 113.918 359.11 115.592 359.11 115.592C359.11 115.592 357.199 107.906 355.552 106.29C354.739 105.605 353.696 105.255 352.634 105.308C351.573 105.361 350.571 105.815 349.83 106.577C349.089 107.34 348.665 108.355 348.643 109.417C348.62 110.48 349.001 111.512 349.708 112.305Z" fill="#61A199"/>
<path opacity="0.1" d="M345.317 131.705C347.385 132.748 355.254 132.026 355.254 132.026C355.254 132.026 351.145 125.257 349.078 124.214C348.097 123.807 346.999 123.786 346.004 124.155C345.009 124.524 344.19 125.256 343.712 126.203C343.234 127.151 343.132 128.245 343.427 129.264C343.722 130.284 344.392 131.154 345.302 131.701L345.317 131.705Z" fill="#61A199"/>
<path opacity="0.1" d="M343.637 151.148C345.499 152.524 353.395 153.147 353.395 153.147C353.395 153.147 350.49 145.782 348.625 144.403C348.188 144.016 347.675 143.725 347.119 143.547C346.563 143.369 345.976 143.31 345.396 143.371C344.816 143.433 344.254 143.615 343.748 143.905C343.242 144.195 342.802 144.588 342.455 145.058C342.109 145.527 341.865 146.064 341.737 146.634C341.61 147.203 341.602 147.793 341.715 148.365C341.828 148.938 342.059 149.481 342.393 149.959C342.728 150.438 343.158 150.841 343.657 151.144L343.637 151.148Z" fill="#61A199"/>
<path opacity="0.1" d="M206.354 226.021C310.159 215.898 392.989 194.146 391.359 177.437C389.73 160.727 304.258 155.389 200.453 165.512C96.6471 175.635 13.8171 197.387 15.4466 214.097C17.0761 230.806 102.548 236.145 206.354 226.021Z" fill="#61A199"/>
<path d="M375.002 180.1C382.068 165.615 380.609 142.039 379.856 134.036C379.691 132.286 379.561 131.28 379.561 131.28C379.561 131.28 373.332 130.298 375.629 122.758C376.752 119.066 372.762 117.025 368.406 115.906C365.291 115.161 362.112 114.711 358.912 114.564L298.571 110.838C290.297 97.7064 274.016 99.816 274.016 99.816C274.016 99.816 259.493 98.3064 249.198 98.1497C247.635 96.7731 245.922 95.5769 244.092 94.584C243.001 93.9286 241.839 93.399 240.629 93.0056C239.158 92.5811 237.608 92.5069 236.102 92.7889C234.597 93.071 233.179 93.7014 231.961 94.6299C231.368 95.0568 230.885 95.6188 230.551 96.2694C230.423 96.5652 230.327 96.874 230.265 97.1904C230.109 97.7301 229.982 98.2773 229.882 98.83C229.793 99.096 229.664 99.3472 229.5 99.5752C229.087 100.16 228.377 100.599 228.285 101.306C228.283 101.347 228.283 101.388 228.285 101.429C228.209 101.564 228.159 101.711 228.136 101.864C228.108 102.179 228.176 102.495 228.331 102.77C228.354 102.816 228.38 102.858 228.407 102.9C227.899 103.636 227.484 104.432 227.173 105.27C227.031 105.347 226.895 105.432 226.764 105.526L226.649 105.61V105.843L226.584 105.893L226.443 109.657L226.523 109.718C226.639 111.474 227.169 113.178 228.069 114.69C228.97 116.202 230.216 117.479 231.705 118.416C231.755 118.657 231.801 118.902 231.847 119.158C232.057 120.392 232.151 121.644 232.13 122.896H232.065C230.268 122.131 227.196 123.255 224.555 124.566H190.342C197.015 115.982 205.179 109.325 205.179 109.325V101.78C199.347 101.49 148.112 126.102 136.88 131.537L136.383 131.777L78.6556 133.566C68.1992 133.501 59.0576 135.037 51.1389 137.541C37.9064 141.697 26.0153 149.294 16.682 159.554C9.864 167.037 6.87538 173.22 6.87538 173.22L6.94035 173.74L6.87538 173.874L6.9671 173.954L8.52256 186.23L9.59265 194.676C2.15552 199.484 11.7902 201.41 11.7902 201.41C20.9624 209.275 35.7182 208.95 35.7182 208.95C39.3221 213.869 49.8128 213.211 49.8128 213.211H104.88C105.738 208.156 106.887 203.153 108.32 198.23C110.67 215.157 124.027 228.124 140.148 228.124C141.343 228.123 142.538 228.05 143.725 227.906C144.912 228.05 146.106 228.123 147.302 228.124C163.609 228.124 177.085 214.851 179.206 197.641H181.9C181.397 201.486 180.523 205.274 179.29 208.95C228.786 194.527 320.894 187.644 320.894 187.644C321.276 184.013 321.696 180.505 322.151 177.138C325.946 186.558 334.549 193.136 344.562 193.136C345.471 193.134 346.38 193.078 347.283 192.967C348.186 193.078 349.094 193.134 350.004 193.136C361.893 193.136 371.788 183.86 374.02 171.562C374.315 173.732 374.484 175.918 374.524 178.108C374.1 180.195 373.729 181.529 373.68 181.716C373.978 181.171 374.261 180.613 374.528 180.042C374.528 180.264 374.528 180.493 374.528 180.723C374.436 181.105 374.371 181.319 374.352 181.391L374.52 181.078C374.52 181.246 374.52 181.41 374.52 181.579C374.482 181.594 374.685 181.044 375.002 180.1Z" fill="url(#paint0_linear)"/>
<path d="M369.228 128.055H255.76V173.828H369.228V128.055Z" fill="#6F7D95"/>
<path d="M226.908 106.62L243.025 142.724L274.94 140.79L276.228 125.962L277.195 108.554L232.068 105.328L226.908 106.62Z" fill="#4B5C7A"/>
<path d="M226.908 106.619C226.908 106.619 233.023 100.818 240.449 99.5262C247.874 98.2344 272.685 100.814 272.685 100.814L276.232 106.929L275.567 109.841L226.908 106.619Z" fill="#FF4D52"/>
<path d="M287.671 125.154H173.236V158.679H287.671V125.154Z" fill="#4B5C7A"/>
<g opacity="0.1">
<path opacity="0.1" d="M240.644 109.489C238.627 106.738 234.778 108.996 234.147 109.39L233.158 109.29C232.294 108.35 229.645 105.851 227.157 107.689L227.05 107.769L226.901 111.297L227.008 111.381C227.727 111.936 228.542 112.353 229.412 112.612C229.963 112.774 230.545 112.802 231.109 112.696C231.527 112.599 231.918 112.412 232.255 112.148C232.593 111.884 232.868 111.549 233.062 111.167L233.578 111.201L233.96 111.129C234.037 111.535 234.199 111.921 234.436 112.259C234.673 112.598 234.98 112.882 235.336 113.093C237.044 114.06 239.54 113.093 239.643 113.074L239.773 113.024L240.69 109.611L240.644 109.489ZM239.349 112.592C238.841 112.764 236.922 113.33 235.634 112.592C235.313 112.391 235.043 112.119 234.844 111.797C234.646 111.475 234.524 111.112 234.488 110.735L234.442 110.456L233.605 110.628L232.764 110.598L232.684 110.758C232.53 111.105 232.299 111.413 232.008 111.656C231.718 111.9 231.375 112.074 231.006 112.164C229.565 112.474 227.899 111.358 227.463 111.041L227.589 108.06C229.752 106.604 232.137 108.966 232.825 109.738L232.898 109.818L234.293 109.955L234.377 109.898C234.415 109.875 237.881 107.548 239.857 109.42C239.955 109.511 240.046 109.61 240.128 109.715L239.349 112.592Z" fill="black"/>
</g>
<path d="M202.568 151.266H89.1006V197.039H202.568V151.266Z" fill="#6F7D95"/>
<path d="M141.03 227.015C158.518 227.015 172.694 211.501 172.694 192.363C172.694 173.225 158.518 157.711 141.03 157.711C123.543 157.711 109.367 173.225 109.367 192.363C109.367 211.501 123.543 227.015 141.03 227.015Z" fill="#4B5C7A"/>
<path opacity="0.05" d="M141.03 227.015C158.518 227.015 172.694 211.501 172.694 192.363C172.694 173.225 158.518 157.711 141.03 157.711C123.543 157.711 109.367 173.225 109.367 192.363C109.367 211.501 123.543 227.015 141.03 227.015Z" fill="black"/>
<path d="M148.067 227.015C165.554 227.015 179.73 211.501 179.73 192.363C179.73 173.225 165.554 157.711 148.067 157.711C130.579 157.711 116.403 173.225 116.403 192.363C116.403 211.501 130.579 227.015 148.067 227.015Z" fill="#4B5C7A"/>
<path opacity="0.05" d="M147.364 206.612C155.135 206.612 161.435 200.312 161.435 192.54C161.435 184.769 155.135 178.469 147.364 178.469C139.592 178.469 133.292 184.769 133.292 192.54C133.292 200.312 139.592 206.612 147.364 206.612Z" fill="black"/>
<path d="M147.363 196.764C149.695 196.764 151.586 194.874 151.586 192.541C151.586 190.209 149.695 188.318 147.363 188.318C145.03 188.318 143.14 190.209 143.14 192.541C143.14 194.874 145.03 196.764 147.363 196.764Z" stroke="#6F7D95" stroke-width="2" stroke-miterlimit="10"/>
<path d="M147.362 186.207C147.945 186.207 148.417 185.735 148.417 185.152C148.417 184.57 147.945 184.098 147.362 184.098C146.78 184.098 146.308 184.57 146.308 185.152C146.308 185.735 146.78 186.207 147.362 186.207Z" fill="#6F7D95"/>
<path d="M153.812 187.999C154.259 187.624 154.317 186.959 153.943 186.513C153.568 186.066 152.903 186.008 152.456 186.383C152.01 186.757 151.952 187.422 152.326 187.869C152.701 188.315 153.366 188.373 153.812 187.999Z" fill="#6F7D95"/>
<path d="M156.331 193.105C156.432 192.531 156.049 191.984 155.475 191.883C154.902 191.782 154.355 192.165 154.253 192.739C154.152 193.312 154.535 193.859 155.109 193.961C155.683 194.062 156.23 193.679 156.331 193.105Z" fill="#6F7D95"/>
<path d="M152.805 199.173C153.31 198.881 153.483 198.236 153.191 197.732C152.9 197.227 152.255 197.054 151.75 197.346C151.246 197.637 151.073 198.282 151.364 198.787C151.656 199.291 152.301 199.464 152.805 199.173Z" fill="#6F7D95"/>
<path d="M147.25 199.744C147.45 199.197 147.167 198.591 146.62 198.392C146.073 198.193 145.467 198.475 145.268 199.022C145.069 199.57 145.351 200.175 145.898 200.374C146.446 200.574 147.051 200.291 147.25 199.744Z" fill="#6F7D95"/>
<path d="M141.889 196.487C142.437 196.288 142.719 195.682 142.52 195.135C142.321 194.587 141.715 194.305 141.168 194.504C140.621 194.704 140.338 195.309 140.538 195.856C140.737 196.404 141.342 196.686 141.889 196.487Z" fill="#6F7D95"/>
<path d="M142.382 189.897C142.673 189.393 142.5 188.748 141.996 188.456C141.491 188.165 140.846 188.338 140.555 188.842C140.263 189.347 140.436 189.992 140.941 190.283C141.445 190.575 142.09 190.402 142.382 189.897Z" fill="#6F7D95"/>
<path d="M375.579 165.585C374.498 173.053 371.49 181.227 371.49 181.227C371.51 180.718 371.523 180.215 371.528 179.718C371.528 179.076 371.528 178.441 371.528 177.807C371.146 157.223 359.929 144.523 352.695 138.443C350.814 136.841 348.792 135.413 346.652 134.178H366.315C366.315 134.178 374.051 149.973 375.663 157.708C376.13 159.879 376 162.68 375.579 165.585Z" fill="#FF4D52"/>
<path opacity="0.05" d="M375.579 165.585C374.498 173.053 371.49 181.227 371.49 181.227C371.51 180.718 371.523 180.215 371.528 179.718C371.528 179.076 371.528 178.441 371.528 177.807C371.146 157.223 359.929 144.523 352.695 138.443C350.814 136.841 348.792 135.413 346.652 134.178H366.315C366.315 134.178 374.051 149.973 375.663 157.708C376.13 159.879 376 162.68 375.579 165.585Z" fill="black"/>
<path d="M342.055 192.61C355.354 192.61 366.135 180.811 366.135 166.255C366.135 151.7 355.354 139.9 342.055 139.9C328.755 139.9 317.974 151.7 317.974 166.255C317.974 180.811 328.755 192.61 342.055 192.61Z" fill="#4B5C7A"/>
<path opacity="0.05" d="M342.055 192.61C355.354 192.61 366.135 180.811 366.135 166.255C366.135 151.7 355.354 139.9 342.055 139.9C328.755 139.9 317.974 151.7 317.974 166.255C317.974 180.811 328.755 192.61 342.055 192.61Z" fill="black"/>
<path d="M347.405 192.61C360.705 192.61 371.486 180.811 371.486 166.255C371.486 151.7 360.705 139.9 347.405 139.9C334.106 139.9 323.324 151.7 323.324 166.255C323.324 180.811 334.106 192.61 347.405 192.61Z" fill="#4B5C7A"/>
<path opacity="0.05" d="M346.87 177.087C352.78 177.087 357.571 172.296 357.571 166.386C357.571 160.477 352.78 155.686 346.87 155.686C340.96 155.686 336.169 160.477 336.169 166.386C336.169 172.296 340.96 177.087 346.87 177.087Z" fill="black"/>
<path d="M346.87 169.596C348.643 169.596 350.081 168.159 350.081 166.386C350.081 164.613 348.643 163.176 346.87 163.176C345.097 163.176 343.66 164.613 343.66 166.386C343.66 168.159 345.097 169.596 346.87 169.596Z" stroke="#6F7D95" stroke-width="2" stroke-miterlimit="10"/>
<path d="M346.87 161.572C347.313 161.572 347.672 161.213 347.672 160.769C347.672 160.326 347.313 159.967 346.87 159.967C346.427 159.967 346.067 160.326 346.067 160.769C346.067 161.213 346.427 161.572 346.87 161.572Z" fill="#6F7D95"/>
<path d="M351.778 162.934C352.118 162.65 352.162 162.143 351.877 161.804C351.592 161.464 351.086 161.42 350.747 161.705C350.407 161.99 350.363 162.496 350.648 162.836C350.933 163.175 351.439 163.219 351.778 162.934Z" fill="#6F7D95"/>
<path d="M353.691 166.82C353.768 166.384 353.476 165.968 353.04 165.891C352.603 165.814 352.187 166.105 352.11 166.542C352.033 166.978 352.325 167.394 352.761 167.471C353.198 167.548 353.614 167.257 353.691 166.82Z" fill="#6F7D95"/>
<path d="M351.011 171.434C351.395 171.213 351.527 170.722 351.305 170.338C351.083 169.954 350.593 169.822 350.209 170.044C349.825 170.266 349.693 170.757 349.915 171.14C350.137 171.524 350.627 171.656 351.011 171.434Z" fill="#6F7D95"/>
<path d="M346.788 171.867C346.939 171.451 346.725 170.99 346.308 170.838C345.892 170.687 345.431 170.902 345.279 171.318C345.128 171.735 345.343 172.195 345.759 172.347C346.176 172.498 346.636 172.284 346.788 171.867Z" fill="#6F7D95"/>
<path d="M342.707 169.386C343.124 169.235 343.339 168.774 343.187 168.358C343.036 167.941 342.575 167.726 342.158 167.878C341.742 168.029 341.527 168.49 341.679 168.907C341.83 169.323 342.291 169.538 342.707 169.386Z" fill="#6F7D95"/>
<path d="M343.086 164.377C343.308 163.993 343.176 163.502 342.792 163.281C342.409 163.059 341.918 163.191 341.696 163.574C341.475 163.958 341.606 164.449 341.99 164.671C342.374 164.892 342.865 164.761 343.086 164.377Z" fill="#6F7D95"/>
<path d="M12.8682 195.91L9.95605 173.021H44.4474L62.1765 188.817L53.4744 209.126C53.4744 209.126 18.3639 203.324 12.8682 195.91Z" fill="#FF4D52"/>
<path opacity="0.05" d="M62.1884 188.817L53.4862 209.126C53.4862 209.126 18.3643 203.324 12.8687 195.91L12.7425 194.913L10.0673 173.748L10.0406 173.538L9.97559 173.025H44.4669L62.1884 188.817Z" fill="black"/>
<path d="M204.991 102.753V110.167C204.991 110.167 187.167 124.689 182.924 138.39C182.184 140.615 181.904 142.968 182.103 145.304C183.716 160.453 135.691 133.051 135.691 133.051L137.828 132.012C148.869 126.688 199.255 102.462 204.991 102.753Z" fill="#7597CE"/>
<path d="M245.609 138.535C245.609 138.535 262.302 130.333 264.982 124.264C265.341 123.45 265.681 122.629 266.078 121.83C267.733 118.501 271.211 110.693 269.461 106.944C267.206 102.11 274.941 107.59 274.941 107.59L270.428 130.471L259.467 136.586L245.284 138.535" fill="#FF4D52"/>
<path opacity="0.05" d="M245.609 138.535C245.609 138.535 262.302 130.333 264.982 124.264C265.341 123.45 265.681 122.629 266.078 121.83C267.733 118.501 271.211 110.693 269.461 106.944C267.206 102.11 274.941 107.59 274.941 107.59L270.428 130.471L259.467 136.586L245.284 138.535" fill="black"/>
<path opacity="0.05" d="M62.1872 188.817L53.485 209.126C53.485 209.126 18.3631 203.324 12.8674 195.91L12.7413 194.913C12.8827 194.817 13.0318 194.718 13.1885 194.622C13.1885 194.622 23.8244 203.003 48.0046 204.941C48.0046 204.941 62.5273 193.334 38.9776 180.443C38.9776 180.443 18.493 181.086 10.0546 173.752L9.96289 173.675L10.0279 173.541C10.0839 173.432 10.1744 173.261 10.2992 173.029H44.4542L62.1872 188.817Z" fill="black"/>
<path opacity="0.05" d="M182.103 145.3C183.716 160.453 135.691 133.051 135.691 133.051L137.828 132.012C139.242 133.517 144.887 138.597 156.172 138.046C163.434 137.691 174.459 138.016 182.944 138.386C182.197 140.61 181.911 142.962 182.103 145.3Z" fill="black"/>
<path opacity="0.05" d="M202.572 151.266V197.039H181.492C182.883 186.391 182.08 170.871 168.559 161.974C163.516 158.678 157.66 156.838 151.638 156.659C145.616 156.48 139.661 157.967 134.43 160.958C125.568 166.018 115.658 176.306 109.36 197.039H89.1045V151.266H202.572Z" fill="black"/>
<path opacity="0.05" d="M375.579 165.585C374.784 170.637 373.508 175.544 371.532 179.725C371.277 180.288 370.999 180.838 370.699 181.373C370.749 181.185 371.112 179.878 371.532 177.822C373.58 167.809 377.085 140.101 353.604 138.519C353.298 138.5 352.996 138.481 352.695 138.47C350.815 136.858 348.793 135.421 346.652 134.178H366.315C366.315 134.178 374.051 149.973 375.663 157.708C376.13 159.879 376 162.68 375.579 165.585Z" fill="black"/>
<path d="M371.337 181.059C371.642 179.955 382.534 140.117 354.242 138.21C325.552 136.276 322.005 157.873 318.784 187.209C318.784 187.209 228.208 193.977 179.527 208.163C179.527 208.163 191.213 176.137 169.208 161.653C164.165 158.356 158.309 156.517 152.287 156.337C146.265 156.158 140.31 157.646 135.08 160.636C124.226 166.835 111.794 180.891 106.355 212.352H52.1934C52.1934 212.352 41.8746 212.998 38.3319 208.148C38.3319 208.148 23.8092 208.469 14.8013 200.734C14.8013 200.734 5.13231 198.8 12.8675 193.965C12.8675 193.965 23.8283 202.347 48.0047 204.284C48.0047 204.284 62.5274 192.678 38.9778 179.787C38.9778 179.787 18.3403 180.433 9.96683 173.018C9.96683 173.018 12.9058 166.938 19.6129 159.581C28.7867 149.49 40.4758 142.016 53.4851 137.923C62.251 135.213 71.3878 133.895 80.5623 134.017L137.457 132.244C137.457 132.244 142.952 139.337 156.153 138.691C169.353 138.046 195.158 139.658 195.158 139.658H195.414L248.505 137.255C250.03 137.039 251.538 136.72 253.019 136.299C260.716 134.209 275.315 127.868 272.682 110.162L356.172 115.321C359.319 115.466 362.445 115.908 365.508 116.64C369.796 117.741 373.717 119.751 372.613 123.382C370.358 130.796 376.481 131.763 376.481 131.763C376.481 131.763 376.611 132.752 376.771 134.472C377.535 142.582 379.037 166.965 371.337 181.059Z" fill="#FF4D52"/>
<path opacity="0.05" d="M116.021 145.625C116.021 145.625 81.2048 145.946 58.3125 166.262H71.2071C71.2071 166.262 107.311 156.914 116.013 149.5L116.021 145.625Z" fill="black"/>
<path d="M115.696 145.301C115.696 145.301 80.8796 145.622 57.9873 165.938H70.8819C70.8819 165.938 106.986 156.59 115.688 149.176L115.696 145.301Z" fill="#FFEC9F"/>
<path opacity="0.05" d="M53.8069 138.248V146.912L24.4787 160.452L19.9385 159.906C29.1112 149.815 40.7989 142.341 53.8069 138.248Z" fill="black"/>
<path d="M53.4816 137.928V146.592L24.1496 160.128L19.6094 159.582C28.7836 149.492 40.4727 142.019 53.4816 137.928Z" fill="#FFEC9F"/>
<path opacity="0.05" d="M95.0653 177.215C95.0653 177.215 79.27 186.884 77.6572 208.171H86.6842C86.6842 208.171 90.2308 184.962 100.546 177.215H95.0653Z" fill="black"/>
<path opacity="0.05" d="M281.713 177.86L199.832 187.529C199.832 187.529 194.416 153.057 195.417 139.646L248.509 137.242C250.032 137.031 251.539 136.715 253.019 136.298V139.497L292.991 129.828C292.991 129.828 299.763 139.818 281.713 177.86Z" fill="black"/>
<path d="M272.687 100.814C272.687 100.814 290.095 98.5592 297.83 113.388L272.935 112.428L272.687 100.814Z" fill="#FF4D52"/>
<path opacity="0.05" d="M296.622 118.586C295.937 120.73 296.453 123.088 300.416 124.72C303.715 126.081 307.582 124.506 308.71 121.124C309.367 119.152 308.916 116.92 305.362 115.105C301.808 113.289 297.818 114.841 296.622 118.586Z" fill="black"/>
<path d="M10.5791 177.854C10.5791 177.854 31.2395 188.554 46.0679 184.503" stroke="#FF4D52" stroke-miterlimit="10"/>
<path d="M11.3096 183.631C11.3096 183.631 24.659 193.927 51.6405 191.534" stroke="#FF4D52" stroke-miterlimit="10"/>
<path d="M11.9238 188.482C11.9238 188.482 25.1662 199.975 52.3771 196.332" stroke="#FF4D52" stroke-miterlimit="10"/>
<path opacity="0.05" d="M296.832 111.656C296.832 111.656 286.062 120.955 276.232 125.159C276.232 125.159 291.16 127.815 296.832 111.656Z" fill="black"/>
<path opacity="0.1" d="M182.736 139.024C182.736 139.024 233.841 143.85 253.179 139.337C253.179 139.337 254.211 140.021 248.054 137.262L182.736 139.024Z" fill="black"/>
<path opacity="0.05" d="M376.774 134.471C373.591 132.38 368.542 128.043 369.23 123.216C369.574 120.797 367.862 118.534 365.512 116.635C369.8 117.735 373.721 119.746 372.616 123.376C370.362 130.791 376.484 131.757 376.484 131.757C376.484 131.757 376.61 132.751 376.774 134.471Z" fill="black"/>
<path d="M119.919 168.119C119.949 166.843 119.919 165.516 119.823 164.297C119.823 164.064 119.785 163.839 119.762 163.617C120.48 164.16 120.908 164.573 120.908 164.573L120.278 131.384L116.8 113.999C116.8 101.67 110.162 98.1963 110.162 98.1963C110.162 98.1963 106.684 96.6141 105.736 94.4051C104.788 92.1962 96.388 87.526 96.3842 87.526C96.3176 86.7214 96.2921 85.914 96.3077 85.1068C96.3077 84.8966 96.3077 84.6788 96.3268 84.4609C98.4328 83.0646 99.9604 80.9514 100.626 78.5138C101.292 76.0763 101.05 73.48 99.946 71.2071C100.412 71.2071 100.791 71.0122 100.966 70.3204C101.524 68.1306 100.986 64.8324 99.7167 63.082C99.4455 62.7159 99.1396 62.3768 98.8033 62.0693C98.4096 61.6742 97.9949 61.3004 97.5613 60.9495C96.4759 60.0476 95.2682 59.0998 93.923 59.1762C93.1598 59.2761 92.4265 59.5366 91.7713 59.9406C88.4107 61.7088 85.059 63.4922 81.7163 65.291C80.4819 65.9598 79.2092 66.663 78.3455 67.8631C77.4818 69.0631 77.134 70.5994 76.8932 72.109C76.6908 73.1318 76.6431 74.1792 76.7518 75.2161C76.8529 76.1597 77.2848 77.037 77.971 77.6926C78.1093 77.8598 78.2671 78.0099 78.4411 78.1397C79.1213 78.6366 79.9965 78.7589 80.7074 79.1602C81.2447 80.7205 82.1445 82.1311 83.3329 83.2762C83.3329 83.4711 83.3061 83.6584 83.2909 83.8724C83.2488 84.4189 83.1839 85.0189 83.0998 85.6266C83.0998 85.6266 80.7647 85.5654 77.2869 90.3044C73.8091 95.0434 66.2229 95.6778 66.2229 95.6778C66.2229 95.6778 63.3795 94.4128 60.2189 108.637C57.0584 122.862 56.1106 132.332 57.6889 133.922C58.3592 134.501 59.1146 134.972 59.9285 135.321C62.6077 136.673 65.4907 137.577 68.4625 137.996C68.5003 138.11 68.5645 138.213 68.6497 138.298L68.8752 141.053C69.0663 146.87 69.288 158.538 68.1109 161.125C66.5287 164.603 68.4281 166.816 68.4281 166.816L68.8102 166.789C68.8809 166.909 68.96 167.024 69.0472 167.133L70.5759 167.03C70.4651 173.527 70.167 182.539 69.3797 184.518C68.1147 187.679 69.3797 205.064 69.3797 205.064L67.1669 236.357C67.1669 236.357 65.9554 252.691 67.0905 254.582C66.4713 257.98 65.3592 264.454 65.5885 266.067C65.9057 268.28 73.1747 271.44 73.1747 271.44C73.1747 271.44 81.7086 273.351 85.817 272.705C87.9649 272.373 88.8171 270.92 88.8247 269.648C91.6108 270.095 95.2377 270.523 97.5116 270.171C101.62 269.541 100.989 264.798 98.7766 265.115C96.5638 265.432 94.0338 260.984 92.1535 258.771C91.1981 257.655 90.4031 255.66 89.8604 253.952C90.2602 253.892 90.6271 253.696 90.9 253.398C91.8478 251.816 93.43 237.278 93.43 237.278L97.5383 211.993C97.5383 211.993 99.7511 199.664 101.647 196.82C103.08 194.673 104.872 178.644 105.663 170.924H105.732H105.755L105.839 170.653L107.028 166.816C107.662 167.936 109.26 168.49 111.121 168.727C110.922 169.537 110.758 170.198 110.662 170.576C110.188 172.487 117.098 175.633 118.764 174.054C119.464 173.393 119.827 170.997 119.911 168.375H119.968L119.919 168.119ZM78.3914 254.315C78.2844 254.93 78.1774 255.572 78.0703 256.226C77.8296 255.461 77.6385 254.774 77.5085 254.265C77.8219 254.277 78.1162 254.292 78.3914 254.315Z" fill="url(#paint1_linear)"/>
<path d="M88.9896 247.726C88.9896 247.726 90.2087 253.206 92.047 255.335C93.8852 257.464 96.3082 261.725 98.4369 261.423C100.566 261.121 101.177 265.684 97.2178 266.292C93.2585 266.899 85.0417 265.073 85.0417 265.073C85.0417 265.073 78.0402 262.015 77.7383 259.898C77.4364 257.781 79.5651 246.809 79.5651 246.809L88.9896 247.726Z" fill="#53526B"/>
<path opacity="0.05" d="M88.9896 247.726C88.9896 247.726 90.2087 253.206 92.047 255.335C93.8852 257.464 96.3082 261.725 98.4369 261.423C100.566 261.121 101.177 265.684 97.2178 266.292C93.2585 266.899 85.0417 265.073 85.0417 265.073C85.0417 265.073 78.0402 262.015 77.7383 259.898C77.4364 257.781 79.5651 246.809 79.5651 246.809L88.9896 247.726Z" fill="black"/>
<path d="M77.7268 250.159C77.7268 250.159 78.946 255.64 80.7842 257.769C82.6225 259.897 85.0455 264.159 87.1742 263.857C89.3029 263.555 89.9144 268.118 85.9551 268.726C81.9957 269.333 73.779 267.51 73.779 267.51C73.779 267.51 66.7775 264.453 66.4756 262.336C66.1737 260.218 68.3024 249.246 68.3024 249.246L77.7268 250.159Z" fill="#53526B"/>
<path d="M105.427 166.762C105.427 166.762 102.992 192.937 101.166 195.677C99.3387 198.417 97.21 210.288 97.21 210.288L93.2545 234.636C93.2545 234.636 91.7258 248.639 90.82 250.16C89.9143 251.681 78.6172 251.028 78.6172 251.028L85.6263 170.415L105.427 166.762Z" fill="#5F5D7E"/>
<path opacity="0.05" d="M105.427 166.762C105.427 166.762 102.992 192.937 101.166 195.677C99.3387 198.417 97.21 210.288 97.21 210.288L93.2545 234.636C93.2545 234.636 91.7258 248.639 90.82 250.16C89.9143 251.681 78.6172 251.028 78.6172 251.028L85.6263 170.415L105.427 166.762Z" fill="black"/>
<path d="M110.296 154.283L109.501 156.809L105.201 170.457L105.117 170.717H105.094C104.517 170.847 92.3333 173.648 89.704 174.508C89.5621 174.552 89.423 174.604 89.2874 174.665C88.0683 175.272 86.5472 197.186 86.5472 197.186C86.5472 197.186 85.6338 217.885 85.0185 219.406C84.4032 220.927 81.9611 252.273 80.4515 251.363C78.9419 250.454 67.9735 251.363 67.9735 251.363C66.7543 250.144 67.9735 233.711 67.9735 233.711L70.1022 203.576C70.1022 203.576 68.8831 186.837 70.1022 183.791C71.3213 180.745 71.3213 160.356 71.3213 160.356L96.2506 156.496L98.6583 156.114L110.296 154.283Z" fill="#5F5D7E"/>
<path opacity="0.02" d="M109.501 156.81L105.201 170.457L105.098 170.725C104.521 170.855 92.3374 173.656 89.708 174.516H89.4443L96.2509 156.496L96.4458 155.977L98.6586 156.118L109.501 156.81Z" fill="black"/>
<path opacity="0.1" d="M81.0754 93.4121C81.0754 93.4121 92.3381 105.588 99.3396 95.5408L106.035 100.108L104.816 107.109L108.772 160.071C108.772 160.071 98.4223 159.765 91.119 162.2C89.0849 162.921 86.887 163.047 84.7841 162.561C82.6811 162.076 80.7606 161 79.2486 159.46L80.4677 112.892L77.7275 98.5868L81.0754 93.4121Z" fill="black"/>
<path d="M81.0755 92.498C81.0755 92.498 92.3382 104.674 99.3396 94.6268L106.035 99.1938L104.816 106.195L108.776 159.172C108.776 159.172 98.4262 158.867 91.1229 161.301C89.0888 162.023 86.8909 162.148 84.788 161.663C82.685 161.177 80.7645 160.101 79.2525 158.561L80.4716 111.993L77.7314 97.688L81.0755 92.498Z" fill="#53526B"/>
<path d="M103.555 146.723V148.637H104.17V147.361H106.406V148.637H107.021V146.726L103.555 146.723Z" fill="#E82127"/>
<path d="M104.105 146.103H106.467C106.622 146.066 106.763 145.987 106.876 145.876C106.99 145.764 107.07 145.623 107.109 145.469H103.467C103.506 145.623 103.587 145.763 103.7 145.875C103.813 145.987 103.954 146.066 104.109 146.103" fill="#E82127"/>
<path d="M82.749 145.473C82.7893 145.625 82.8698 145.764 82.9821 145.875C83.0943 145.986 83.2342 146.065 83.3873 146.103H84.3809L84.4306 146.122V148.629H85.0497V146.122L85.107 146.103H86.1007C86.2532 146.064 86.3925 145.985 86.5046 145.874C86.6167 145.763 86.6975 145.625 86.7389 145.473H82.749Z" fill="#E82127"/>
<path d="M104.514 155.498C104.514 155.498 104.514 163.413 106.34 166.761C108.167 170.109 118.818 168.289 118.818 168.289L116.69 157.027L104.514 155.498Z" fill="#D39999"/>
<path d="M117.661 173.764C116.056 175.293 109.402 172.236 109.86 170.417C110.182 169.129 111.305 164.52 111.943 161.905L112.387 160.067C112.387 160.067 116.285 158.848 117.661 160.067C118.161 160.511 118.513 162.257 118.677 164.367C118.96 168.032 118.681 172.797 117.661 173.764Z" fill="#FDC2CC"/>
<path d="M102.988 97.975L92.3371 106.192C92.3371 106.192 76.5112 105.278 80.4667 97.6693C82.1891 94.3227 83.2284 90.667 83.5241 86.9149C83.6528 85.5305 83.6528 84.1373 83.5241 82.753C83.5241 82.753 98.1347 69.3768 96.3079 84.5798C96.1639 85.7467 96.0798 86.9202 96.0557 88.0958C95.8531 99.5075 102.988 97.975 102.988 97.975Z" fill="#FDC2CC"/>
<path opacity="0.1" d="M96.2926 84.5824C96.1487 85.7493 96.0645 86.9229 96.0404 88.0984C94.4009 89.1843 92.4769 89.7614 90.5103 89.757C87.7854 89.757 85.779 87.1047 83.9675 85.3429C84.17 82.8167 83.5127 82.7556 83.5127 82.7556C83.5127 82.7556 98.1194 69.3603 96.2926 84.5824Z" fill="black"/>
<path d="M90.5104 89.1458C96.0573 89.1458 100.554 84.6491 100.554 79.1022C100.554 73.5553 96.0573 69.0586 90.5104 69.0586C84.9635 69.0586 80.4668 73.5553 80.4668 79.1022C80.4668 84.6491 84.9635 89.1458 90.5104 89.1458Z" fill="#FDC2CC"/>
<path opacity="0.1" d="M83.3597 88.6914C83.3597 88.6914 81.6858 88.8443 78.3379 93.4075C74.9901 97.9706 67.6638 98.5821 67.6638 98.5821C67.6638 98.5821 64.9236 97.363 61.8814 111.06C58.8393 124.757 57.9259 133.887 59.447 135.409C60.968 136.93 67.0561 139.062 70.0982 139.062C70.0982 139.062 71.0116 158.236 69.4906 161.584C67.9695 164.932 69.7963 167.064 69.7963 167.064L83.1724 166.151C83.1724 166.151 87.7394 160.368 88.6528 150.325C89.5662 140.281 92.6083 111.668 91.0873 108.32C89.5662 104.972 82.8705 96.4496 83.1724 95.5362C83.4743 94.6228 83.3597 88.6914 83.3597 88.6914Z" fill="black"/>
<path d="M83.3323 88.5997C83.3323 88.5997 81.0813 88.5385 77.7335 93.1055C74.3856 97.6725 67.0822 98.2802 67.0822 98.2802C67.0822 98.2802 64.3421 97.061 61.2999 110.758C58.2578 124.455 57.3444 133.586 58.8731 135.095C60.4018 136.605 66.4822 138.749 69.5243 138.749C69.5243 138.749 70.4377 157.922 68.9167 161.27C67.3956 164.618 69.2224 166.751 69.2224 166.751L82.5986 165.837C82.5986 165.837 87.1656 160.055 88.079 150.011C88.9924 139.968 92.0345 111.354 90.5134 108.007C88.9924 104.659 82.2966 96.1362 82.5986 95.2228C82.9005 94.3094 83.3323 88.5997 83.3323 88.5997Z" fill="#D39999"/>
<path d="M75.3086 127.803C75.3086 127.803 90.5383 110.338 88.3981 122.323C86.8694 130.845 81.0947 135.412 78.3545 136.325C75.6143 137.239 75.3086 127.803 75.3086 127.803Z" fill="#FDC2CC"/>
<path opacity="0.1" d="M118.677 164.367C117.221 163.255 114.473 161.523 111.943 161.905L112.387 160.067C112.387 160.067 116.285 158.848 117.661 160.067C118.165 160.511 118.513 162.257 118.677 164.367Z" fill="black"/>
<path opacity="0.1" d="M96.1402 90.5176C96.1402 90.5176 103.902 95.5394 104.816 97.6719C105.729 99.8044 109.077 101.326 109.077 101.326C109.077 101.326 115.467 104.673 115.467 116.544L118.815 133.283L103.589 154.585C103.589 154.585 101.762 133.279 100.849 128.105C99.9352 122.93 98.7199 113.2 98.7199 113.2C98.7199 113.2 94.1529 107.417 94.7644 105.896C95.3758 104.375 96.1402 90.5176 96.1402 90.5176Z" fill="black"/>
<path d="M96.1125 90.4258C96.1125 90.4258 104.207 94.9316 105.117 97.0604C106.026 99.1891 109.382 100.699 109.382 100.699C109.382 100.699 115.772 104.047 115.772 115.917L119.12 132.656L119.727 164.614C119.727 164.614 114.247 159.439 110.291 161.873C106.336 164.308 103.901 153.959 103.901 153.959C103.901 153.959 102.074 132.652 101.161 127.478C100.248 122.303 99.0324 112.573 99.0324 112.573C99.0324 112.573 94.4654 106.813 95.0769 105.285C95.6883 103.756 96.1125 90.4258 96.1125 90.4258Z" fill="#D39999"/>
<path opacity="0.1" d="M99.3276 66.8871C98.8122 66.2316 98.2165 65.6435 97.5543 65.1367C96.5071 64.2654 95.3491 63.3558 94.0497 63.4322C93.3146 63.5301 92.6086 63.7828 91.9783 64.1737C88.7426 65.8782 85.5157 67.6005 82.2978 69.3407C81.1093 69.9827 79.8825 70.663 79.0532 71.8172C78.2238 72.9713 77.8875 74.4542 77.6544 75.9064C77.4593 76.8902 77.4129 77.8976 77.5168 78.8951C77.6116 79.8729 78.0864 80.7746 78.8391 81.4059C79.7067 82.0365 80.8952 82.0404 81.6214 82.8659C82.0418 83.3436 82.2252 84.0124 82.5233 84.5933C82.8214 85.1742 83.3373 85.7398 83.9259 85.6366C84.5144 85.5334 84.8699 84.9105 84.9539 84.2799C84.9914 83.6408 84.9542 82.9995 84.8431 82.369C84.7285 81.2225 84.8737 80.0072 85.5387 79.1549C85.9973 78.574 86.6546 78.2224 87.098 77.6262C88.1604 76.1893 87.675 73.8045 88.8407 72.4554C89.1791 72.1028 89.6051 71.8462 90.0751 71.7119C90.545 71.5777 91.0422 71.5705 91.5159 71.691C92.4599 71.8898 93.3236 72.4019 94.1911 72.8376C95.3631 73.4288 96.5908 73.9025 97.8562 74.2516C98.9186 74.5421 100.149 75.2376 100.512 73.8236C101.066 71.7484 100.531 68.5725 99.3276 66.8871Z" fill="black"/>
<path d="M99.0219 66.5824C98.5066 65.9269 97.9108 65.3388 97.2486 64.8321C96.2015 63.9607 95.0435 63.0511 93.7441 63.1276C93.009 63.2254 92.303 63.4781 91.6727 63.869C88.4395 65.5735 85.7528 63.9607 81.9922 69.036C81.1896 70.1214 79.5768 70.3583 78.7475 71.5125C77.9182 72.6667 77.5819 74.1495 77.3487 75.6018C77.1536 76.5855 77.1073 77.5929 77.2112 78.5904C77.3059 79.5683 77.7807 80.4699 78.5335 81.1013C79.401 81.7319 80.5896 81.7357 81.3157 82.5612C81.7361 83.0389 81.9196 83.7077 82.2177 84.2886C82.5158 84.8695 83.0317 85.4351 83.6202 85.332C84.2088 85.2288 84.5642 84.6058 84.6483 83.9752C84.6858 83.3361 84.6486 82.6948 84.5375 82.0643C84.4228 80.9178 84.568 79.7025 85.233 78.8502C85.6916 78.2693 86.349 77.9177 86.7923 77.3215C87.8548 75.8846 87.3694 73.4998 88.535 72.1507C88.8735 71.7981 89.2994 71.5415 89.7694 71.4073C90.2394 71.273 90.7366 71.2658 91.2103 71.3864C92.1542 71.5851 93.0179 72.0972 93.8855 72.5329C95.0575 73.1241 96.2852 73.5978 97.5506 73.9469C98.613 74.2374 99.8436 74.933 100.207 73.5189C100.765 71.4437 100.245 68.2678 99.0219 66.5824Z" fill="#865A61"/>
<path d="M71.6386 111.67C71.6386 111.67 71.3329 122.933 69.8118 124.454C68.2908 125.975 70.7252 127.802 70.7252 127.802L76.8133 126.273C76.8133 126.273 75.2846 136.316 81.6822 135.101C81.6822 135.101 77.4209 139.057 73.1597 139.668C68.8984 140.28 69.1927 138.759 69.1927 138.759L62.8027 131.149L71.6386 111.67Z" fill="#D39999"/>
<path opacity="0.1" d="M71.5894 113.039C71.5894 113.039 67.5307 123.388 70.5766 127.65L77.2723 126.121C77.2723 126.121 71.1843 127.948 72.0977 124.294C73.0111 120.641 71.5894 113.039 71.5894 113.039Z" fill="black"/>
<path opacity="0.1" d="M69.3574 138.608C69.3574 138.608 78.1857 139.215 80.6201 137.389C77.4163 139.843 73.6303 141.423 69.6326 141.975L69.3574 138.608Z" fill="black"/>
<path opacity="0.1" d="M107.41 119.127C107.41 119.127 111.977 133.13 111.671 135.259C111.366 137.387 110.758 160.826 110.758 160.826L109.845 160.52L110.15 134.953L107.41 119.127Z" fill="black"/>
<path d="M299.69 158.725C299.69 158.725 306.379 171.852 300.929 179.033C295.479 186.214 301.426 205.786 301.426 205.786" stroke="#61A199" stroke-miterlimit="10"/>
<path d="M301.67 154.641C301.67 157.171 299.812 159.227 299.812 159.227C299.812 159.227 297.955 157.175 297.955 154.641C297.955 152.107 299.812 150.055 299.812 150.055C299.812 150.055 301.67 152.111 301.67 154.641Z" fill="#61A199"/>
<path d="M303.157 158.725C303.157 158.725 296.469 171.852 301.918 179.033C307.368 186.214 301.422 205.786 301.422 205.786" stroke="#61A199" stroke-miterlimit="10"/>
<path d="M301.173 154.641C301.173 157.171 303.03 159.227 303.03 159.227C303.03 159.227 304.888 157.175 304.888 154.641C304.888 152.107 303.03 150.055 303.03 150.055C303.03 150.055 301.173 152.111 301.173 154.641Z" fill="#61A199"/>
<path opacity="0.1" d="M301.173 154.641C301.173 157.171 303.03 159.227 303.03 159.227C303.03 159.227 304.888 157.175 304.888 154.641C304.888 152.107 303.03 150.055 303.03 150.055C303.03 150.055 301.173 152.111 301.173 154.641Z" fill="black"/>
<path d="M305.881 158.725C305.881 158.725 312.569 171.852 307.119 179.033C301.669 186.214 307.616 205.786 307.616 205.786" stroke="#61A199" stroke-miterlimit="10"/>
<path d="M307.861 154.641C307.861 157.171 306.004 159.227 306.004 159.227C306.004 159.227 304.146 157.175 304.146 154.641C304.146 152.107 306.004 150.055 306.004 150.055C306.004 150.055 307.861 152.111 307.861 154.641Z" fill="#61A199"/>
<path d="M306.822 165.156C305.068 166.979 302.305 167.17 302.305 167.17C302.305 167.17 302.389 164.404 304.143 162.584C305.897 160.765 308.66 160.57 308.66 160.57C308.66 160.57 308.576 163.333 306.822 165.156Z" fill="#61A199"/>
<path d="M306.994 174.215C305.24 176.038 302.477 176.229 302.477 176.229C302.477 176.229 302.561 173.462 304.315 171.643C306.069 169.824 308.817 169.625 308.817 169.625C308.817 169.625 308.748 172.388 306.994 174.215Z" fill="#61A199"/>
<path d="M297.481 179.195C299.14 181.105 299.082 183.872 299.082 183.872C299.082 183.872 296.334 183.54 294.676 181.629C293.017 179.718 293.074 176.951 293.074 176.951C293.074 176.951 295.822 177.284 297.481 179.195Z" fill="#61A199"/>
<path d="M299.021 159.882C301.13 161.281 301.814 163.964 301.814 163.964C301.814 163.964 299.074 164.376 296.969 162.993C294.863 161.609 294.175 158.911 294.175 158.911C294.175 158.911 296.911 158.483 299.021 159.882Z" fill="#61A199"/>
<path opacity="0.1" d="M299.021 159.882C301.13 161.281 301.814 163.964 301.814 163.964C301.814 163.964 299.074 164.376 296.969 162.993C294.863 161.609 294.175 158.911 294.175 158.911C294.175 158.911 296.911 158.483 299.021 159.882Z" fill="black"/>
<path d="M309.348 158.725C309.348 158.725 302.66 171.852 308.11 179.033C313.56 186.214 307.613 205.786 307.613 205.786" stroke="#61A199" stroke-miterlimit="10"/>
<path d="M307.369 154.641C307.369 157.171 309.227 159.227 309.227 159.227C309.227 159.227 311.084 157.175 311.084 154.641C311.084 152.107 309.227 150.055 309.227 150.055C309.227 150.055 307.369 152.111 307.369 154.641Z" fill="#61A199"/>
<path opacity="0.1" d="M307.369 154.641C307.369 157.171 309.227 159.227 309.227 159.227C309.227 159.227 311.084 157.175 311.084 154.641C311.084 152.107 309.227 150.055 309.227 150.055C309.227 150.055 307.369 152.111 307.369 154.641Z" fill="black"/>
<path d="M307.903 165.351C306.126 167.155 305.992 169.937 305.992 169.937C305.992 169.937 308.755 169.781 310.532 167.977C312.31 166.173 312.443 163.391 312.443 163.391C312.443 163.391 309.676 163.547 307.903 165.351Z" fill="#61A199"/>
<path opacity="0.1" d="M307.903 165.351C306.126 167.155 305.992 169.937 305.992 169.937C305.992 169.937 308.755 169.781 310.532 167.977C312.31 166.173 312.443 163.391 312.443 163.391C312.443 163.391 309.676 163.547 307.903 165.351Z" fill="black"/>
<path d="M311.385 177.898C309.608 179.702 309.475 182.484 309.475 182.484C309.475 182.484 312.238 182.327 314.015 180.524C315.792 178.72 315.926 175.938 315.926 175.938C315.926 175.938 313.163 176.087 311.385 177.898Z" fill="#61A199"/>
<path d="M306.26 175.136C306.26 175.136 310.284 168.792 315.936 168.639" stroke="#61A199" stroke-miterlimit="10"/>
<path d="M303.127 171.302C303.127 171.302 299.103 164.958 293.45 164.805" stroke="#61A199" stroke-miterlimit="10"/>
<path d="M302.603 180.36C302.603 180.36 306.627 174.016 312.279 173.863" stroke="#61A199" stroke-miterlimit="10"/>
<path d="M315.75 169.647C316.327 169.647 316.794 169.18 316.794 168.604C316.794 168.028 316.327 167.561 315.75 167.561C315.174 167.561 314.707 168.028 314.707 168.604C314.707 169.18 315.174 169.647 315.75 169.647Z" fill="#61A199"/>
<path d="M293.544 165.901C294.121 165.901 294.588 165.434 294.588 164.858C294.588 164.282 294.121 163.814 293.544 163.814C292.968 163.814 292.501 164.282 292.501 164.858C292.501 165.434 292.968 165.901 293.544 165.901Z" fill="#61A199"/>
<path d="M305.564 182.45C305.564 182.45 301.54 176.106 295.888 175.953" stroke="#61A199" stroke-miterlimit="10"/>
<path d="M295.983 177.05C296.559 177.05 297.026 176.582 297.026 176.006C297.026 175.43 296.559 174.963 295.983 174.963C295.407 174.963 294.939 175.43 294.939 176.006C294.939 176.582 295.407 177.05 295.983 177.05Z" fill="#61A199"/>
<path d="M312.356 174.96C312.932 174.96 313.399 174.493 313.399 173.916C313.399 173.34 312.932 172.873 312.356 172.873C311.78 172.873 311.312 173.34 311.312 173.916C311.312 174.493 311.78 174.96 312.356 174.96Z" fill="#61A199"/>
<path d="M327.814 198.154C327.814 198.154 318.114 196.212 315.527 193.625C312.94 191.038 301.298 186.524 300.007 189.746C298.715 192.968 282.545 203.986 293.529 205.924C304.513 207.861 319.398 208.511 322.631 207.215C325.865 205.92 327.814 198.154 327.814 198.154Z" fill="#A8A8A8"/>
<path opacity="0.2" d="M293.53 204.723C304.525 206.664 319.399 207.31 322.632 206.014C325.093 205.028 326.806 200.282 327.482 198.096L327.807 198.165C327.807 198.165 325.865 205.926 322.632 207.218C319.399 208.51 304.525 207.864 293.53 205.927C290.358 205.365 289.448 204.05 289.792 202.388C290.071 203.469 291.175 204.306 293.53 204.723Z" fill="black"/>
<path d="M43.3087 230.51C43.3087 230.51 46.5113 234.714 41.8297 241.02C37.148 247.325 33.2881 252.68 34.8512 256.628C34.8512 256.628 41.9138 244.883 47.6617 244.719C53.4096 244.555 49.6299 237.572 43.3087 230.51Z" fill="#61A199"/>
<path opacity="0.1" d="M43.3073 230.51C43.5863 230.915 43.8064 231.357 43.9608 231.824C49.5711 238.413 52.5559 244.562 47.1672 244.719C42.1454 244.864 36.1224 253.842 34.6777 256.112C34.7254 256.287 34.7828 256.459 34.8497 256.628C34.8497 256.628 41.9123 244.883 47.6602 244.719C53.4081 244.555 49.6284 237.572 43.3073 230.51Z" fill="black"/>
<path d="M49.2624 235.843C49.2624 237.318 49.0981 238.518 48.8802 238.518C48.6624 238.518 48.498 237.322 48.498 235.843C48.498 234.364 48.7044 235.079 48.907 235.079C49.1095 235.079 49.2624 234.372 49.2624 235.843Z" fill="#FFD037"/>
<path d="M51.3034 237.605C50.0078 238.312 48.8804 238.751 48.7848 238.556C48.6893 238.362 49.6562 237.658 50.9518 236.955C52.2473 236.252 51.7352 236.764 51.8346 236.955C51.934 237.146 52.5989 236.898 51.3034 237.605Z" fill="#FFD037"/>
<path d="M26.389 230.51C26.389 230.51 23.1864 234.714 27.868 241.02C32.5497 247.325 36.4097 252.68 34.8466 256.624C34.8466 256.624 27.784 244.88 22.036 244.715C16.2881 244.551 20.0678 237.572 26.389 230.51Z" fill="#61A199"/>
<path opacity="0.1" d="M26.389 230.51C26.1099 230.915 25.8899 231.357 25.7355 231.824C20.1252 238.413 17.1404 244.562 22.529 244.719C27.5508 244.864 33.5739 253.842 35.0185 256.112C34.9709 256.287 34.9135 256.459 34.8466 256.628C34.8466 256.628 27.784 244.883 22.036 244.719C16.2881 244.555 20.0678 237.572 26.389 230.51Z" fill="black"/>
<path d="M20.4355 235.843C20.4355 237.318 20.5999 238.518 20.8177 238.518C21.0356 238.518 21.1999 237.322 21.1999 235.843C21.1999 234.364 20.9935 235.079 20.791 235.079C20.5884 235.079 20.4355 234.372 20.4355 235.843Z" fill="#FFD037"/>
<path d="M18.3944 237.605C19.69 238.312 20.8174 238.751 20.9129 238.556C21.0085 238.362 20.0416 237.658 18.746 236.955C17.4504 236.252 17.9625 236.764 17.8632 236.955C17.7638 237.146 17.0988 236.898 18.3944 237.605Z" fill="#FFD037"/>
<path d="M21.4561 256.073C21.4561 256.073 30.4104 255.798 33.1086 253.875C35.8067 251.953 46.8669 249.672 47.551 252.729C48.2351 255.786 61.0074 268.058 50.8988 268.138C40.7903 268.218 27.4103 266.564 24.716 264.924C22.0217 263.285 21.4561 256.073 21.4561 256.073Z" fill="#A8A8A8"/>
<path opacity="0.2" d="M51.0814 267.079C40.9729 267.159 27.5929 265.504 24.8986 263.865C22.8463 262.615 22.0284 258.132 21.7571 256.064H21.459C21.459 256.064 22.0246 263.288 24.7189 264.927C27.4133 266.567 40.7932 268.225 50.9018 268.141C53.8216 268.118 54.8267 267.079 54.7732 265.542C54.3643 266.483 53.2522 267.06 51.0814 267.079Z" fill="black"/>
</g>
<defs>
<linearGradient id="paint0_linear" x1="193.644" y1="228.139" x2="193.644" y2="92.6273" gradientUnits="userSpaceOnUse">
<stop stop-color="#808080" stop-opacity="0.25"/>
<stop offset="0.54" stop-color="#808080" stop-opacity="0.12"/>
<stop offset="1" stop-color="#808080" stop-opacity="0.1"/>
</linearGradient>
<linearGradient id="paint1_linear" x1="20568.6" y1="165723" x2="20568.6" y2="46281.7" gradientUnits="userSpaceOnUse">
<stop stop-color="#808080" stop-opacity="0.25"/>
<stop offset="0.54" stop-color="#808080" stop-opacity="0.12"/>
<stop offset="1" stop-color="#808080" stop-opacity="0.1"/>
</linearGradient>
<clipPath id="clip0">
<rect width="391.382" height="300" fill="white"/>
</clipPath>
</defs>
</svg>
