<svg width="18" height="18" viewBox="0 0 18 18" fill="none" xmlns="http://www.w3.org/2000/svg">
<path d="M12.0005 16L6.00049 13.89V2L12.0005 4.11V16ZM17.5005 0C17.4405 0 17.3905 0 17.3405 0L12.0005 2.1L6.00049 0L0.360488 1.9C0.150488 1.97 0.000488281 2.15 0.000488281 2.38V17.5C0.000488281 17.6326 0.0531668 17.7598 0.146935 17.8536C0.240703 17.9473 0.36788 18 0.500488 18C0.550488 18 0.610488 18 0.660488 17.97L6.00049 15.9L12.0005 18L17.6405 16.1C17.8505 16 18.0005 15.85 18.0005 15.62V0.5C18.0005 0.367392 17.9478 0.240215 17.854 0.146447C17.7603 0.0526785 17.6331 0 17.5005 0Z" fill="#61A199"/>
</svg>
