<svg width="450" height="300" viewBox="0 0 450 300" fill="none" xmlns="http://www.w3.org/2000/svg">
<g clip-path="url(#clip0)">
<path d="M294.481 252.481L214.29 223.919V223.516H213.157H80.6538H80.6199L0 252.481H0.231956V260.205H294.713V252.481H294.481Z" fill="#E6E6E6"/>
<path d="M350.623 300C405.359 300 449.731 296.382 449.731 291.92C449.731 287.458 405.359 283.841 350.623 283.841C295.888 283.841 251.516 287.458 251.516 291.92C251.516 296.382 295.888 300 350.623 300Z" fill="#E6E6E6"/>
<path d="M299.842 146.34L294.875 150.998C294.875 150.998 281.417 161.972 287.664 165.998C293.911 170.024 300.875 153.882 300.875 153.882L303.559 149.718L299.842 146.34Z" fill="#9F616A"/>
<path d="M328.629 66.2666L321.61 67.9181C321.61 67.9181 319.959 74.937 320.371 81.543C320.784 88.1491 318.756 100.41 318.756 100.41L313.996 111.48L294.066 149.184L306.455 154.57L328.629 111.27L330.693 83.6074L328.629 66.2666Z" fill="#E6E6E6"/>
<path d="M339.065 46.655C351.202 46.655 361.04 36.2109 361.04 23.3275C361.04 10.4441 351.202 0 339.065 0C326.928 0 317.09 10.4441 317.09 23.3275C317.09 36.2109 326.928 46.655 339.065 46.655Z" fill="#2F2E41"/>
<path d="M358.564 58.6289C364.949 58.6289 370.125 53.4531 370.125 47.0684C370.125 40.6836 364.949 35.5078 358.564 35.5078C352.18 35.5078 347.004 40.6836 347.004 47.0684C347.004 53.4531 352.18 58.6289 358.564 58.6289Z" fill="#2F2E41"/>
<path d="M350.512 31.585L356.705 47.6872L341.016 54.2933L339.638 51.1711L334.822 40.2555L350.512 31.585Z" fill="#9F616A"/>
<path d="M371.569 119.94L377.349 147.19L385.194 208.296L379.413 264.034C379.413 264.034 362.073 269.814 355.467 259.08L363.311 213.25L347.622 159.163L345.145 212.425L349.274 258.667C349.274 258.667 336.474 266.098 326.152 258.667L319.134 167.008C319.134 167.008 313.766 126.959 326.152 113.747L371.569 119.94Z" fill="#2F2E41"/>
<path d="M338.126 42.1129C345.765 42.1129 351.958 35.9204 351.958 28.2816C351.958 20.6427 345.765 14.4502 338.126 14.4502C330.487 14.4502 324.295 20.6427 324.295 28.2816C324.295 35.9204 330.487 42.1129 338.126 42.1129Z" fill="#9F616A"/>
<path d="M338.126 55.1191L339.479 50.8083C339.479 50.8083 351.94 48.7554 355.561 44.7119L362.073 51.4032C362.073 51.4032 379.827 57.1835 382.304 59.6607C384.781 62.138 372.395 100.535 372.395 100.535C372.395 100.535 375.285 107.141 370.331 110.032C370.331 110.032 377.763 121.179 371.982 122.418C366.202 123.657 324.502 114.986 324.502 114.986C324.502 114.986 321.611 110.032 328.217 107.967C328.217 107.967 325.74 102.187 328.63 100.123C331.52 98.0582 329.043 86.4977 329.043 86.4977C329.043 86.4977 320.373 69.1569 321.611 67.9182C322.85 66.6796 338.126 55.1191 338.126 55.1191Z" fill="#E6E6E6"/>
<path d="M378.588 156.274L378.175 159.577C378.175 159.577 378.588 179.395 371.157 178.569C363.725 177.744 368.266 158.339 368.266 158.339L369.505 153.797L378.588 156.274Z" fill="#9F616A"/>
<path d="M369.506 260.319C369.506 260.319 367.854 276.834 370.744 278.072C373.634 279.311 393.04 289.633 387.259 294.174C381.479 298.716 362.074 286.743 360.01 288.807C357.945 290.871 351.339 289.22 350.926 285.504C350.513 281.788 351.339 275.182 354.642 271.053C357.945 266.925 357.945 258.667 357.945 258.667L369.506 260.319Z" fill="#2F2E41"/>
<path d="M345.971 254.126L348.861 267.751C348.861 267.751 355.054 281.376 349.686 284.266C344.319 287.156 343.493 287.569 343.08 289.22C342.668 290.872 331.52 299.542 328.217 292.936C324.914 286.33 336.887 276.834 336.887 276.834L338.952 272.293L336.887 256.19L345.971 254.126Z" fill="#2F2E41"/>
<path d="M326.819 26.7646C335.513 20.9636 338.112 19.5768 348.076 21.8176L348.674 7.28027L322.924 12.6821L326.819 26.7646Z" fill="#2F2E41"/>
<path d="M378.587 60.073L382.716 59.6602C382.716 59.6602 386.845 70.395 386.845 75.7623V111.27L380.239 157.925L367.439 155.86L374.458 114.16L372.394 88.9744L378.587 60.073Z" fill="#E6E6E6"/>
<path d="M288.207 144.215L289.778 147.269C289.793 147.298 289.795 147.33 289.786 147.361C289.776 147.391 289.755 147.416 289.727 147.431L289.651 147.47L297.838 163.378C298.065 163.818 298.107 164.331 297.956 164.802C297.805 165.274 297.473 165.666 297.033 165.892L287.092 171.008C286.874 171.12 286.636 171.189 286.392 171.209C286.148 171.229 285.902 171.201 285.668 171.126C285.435 171.051 285.219 170.931 285.032 170.773C284.845 170.614 284.691 170.42 284.579 170.202L276.678 154.852L276.623 154.88C276.603 154.89 276.58 154.892 276.559 154.885C276.538 154.879 276.52 154.864 276.509 154.844L275.615 153.106C275.61 153.096 275.607 153.085 275.606 153.074C275.605 153.063 275.606 153.052 275.61 153.041C275.613 153.031 275.618 153.021 275.626 153.012C275.633 153.004 275.642 152.997 275.652 152.992L275.706 152.964L275.369 152.309L275.314 152.337C275.293 152.348 275.269 152.35 275.247 152.343C275.224 152.336 275.206 152.32 275.195 152.299L274.313 150.584C274.302 150.564 274.3 150.539 274.307 150.517C274.314 150.495 274.33 150.476 274.351 150.465L274.406 150.437L273.946 149.543L273.89 149.572C273.881 149.577 273.871 149.58 273.86 149.581C273.85 149.582 273.84 149.58 273.83 149.577C273.82 149.574 273.811 149.569 273.803 149.562C273.795 149.556 273.789 149.548 273.784 149.538L273.303 148.603C273.293 148.584 273.291 148.563 273.298 148.543C273.304 148.523 273.318 148.506 273.336 148.497L273.393 148.468L272.418 146.574C272.191 146.134 272.149 145.621 272.3 145.15C272.451 144.679 272.783 144.287 273.223 144.06L283.164 138.944C283.604 138.718 284.116 138.675 284.587 138.826C285.059 138.977 285.451 139.309 285.678 139.749L287.969 144.203L288.045 144.164C288.074 144.149 288.106 144.147 288.137 144.156C288.167 144.166 288.192 144.187 288.207 144.215Z" fill="#3F3D56"/>
<path d="M285.052 140.486L297.114 163.925C297.258 164.204 297.285 164.529 297.189 164.828C297.093 165.127 296.882 165.375 296.603 165.519L287.088 170.416C286.949 170.488 286.798 170.531 286.643 170.544C286.488 170.557 286.332 170.54 286.184 170.492C286.036 170.445 285.899 170.368 285.78 170.268C285.661 170.167 285.564 170.044 285.493 169.906L273.43 146.467C273.359 146.329 273.316 146.178 273.303 146.023C273.29 145.868 273.308 145.712 273.355 145.564C273.403 145.416 273.479 145.279 273.579 145.16C273.68 145.041 273.803 144.944 273.941 144.872L275.365 144.139L275.459 144.322C275.578 144.552 275.783 144.726 276.029 144.805C276.275 144.884 276.543 144.861 276.773 144.743L281.612 142.252C281.842 142.134 282.016 141.929 282.095 141.683C282.174 141.437 282.151 141.169 282.033 140.939L281.939 140.756L283.457 139.975C283.595 139.904 283.746 139.861 283.901 139.848C284.056 139.835 284.212 139.853 284.36 139.9C284.508 139.948 284.646 140.024 284.764 140.124C284.883 140.225 284.981 140.348 285.052 140.486Z" fill="#61A199"/>
<path d="M198.462 198.786C197.512 198.806 196.592 199.117 195.824 199.675L187.467 131.428C187.124 128.629 185.769 126.052 183.658 124.184C181.546 122.315 178.824 121.283 176.004 121.283H118.942C116.122 121.283 113.4 122.315 111.289 124.184C109.177 126.052 107.822 128.629 107.479 131.428L99.1227 199.675C98.3546 199.117 97.4339 198.806 96.4844 198.786C91.9787 198.786 88.3262 206.091 88.3262 215.103C88.3262 224.114 91.9787 231.419 96.4844 231.419C99.9072 231.419 102.833 227.198 104.044 221.221H190.902C192.113 227.198 195.039 231.419 198.462 231.419C202.968 231.419 206.62 224.114 206.62 215.103C206.62 206.091 202.968 198.786 198.462 198.786ZM120.959 202.865C118.942 202.865 116.97 202.267 115.293 201.147C113.616 200.026 112.309 198.433 111.538 196.57C110.766 194.707 110.564 192.656 110.957 190.678C111.351 188.7 112.322 186.883 113.748 185.457C115.174 184.03 116.991 183.059 118.97 182.666C120.948 182.272 122.998 182.474 124.862 183.246C126.725 184.018 128.318 185.325 129.438 187.002C130.559 188.679 131.157 190.651 131.157 192.668C131.157 194.007 130.893 195.333 130.381 196.57C129.868 197.807 129.117 198.932 128.17 199.878C127.223 200.825 126.099 201.577 124.862 202.089C123.624 202.602 122.298 202.865 120.959 202.865ZM171.948 202.865C169.931 202.865 167.959 202.267 166.282 201.147C164.605 200.026 163.298 198.433 162.526 196.57C161.754 194.707 161.553 192.656 161.946 190.678C162.34 188.7 163.311 186.883 164.737 185.457C166.163 184.03 167.98 183.059 169.958 182.666C171.937 182.272 173.987 182.474 175.85 183.246C177.714 184.018 179.306 185.325 180.427 187.002C181.548 188.679 182.146 190.651 182.146 192.668C182.146 194.007 181.882 195.333 181.369 196.57C180.857 197.807 180.106 198.932 179.159 199.878C178.212 200.825 177.088 201.577 175.85 202.089C174.613 202.602 173.287 202.865 171.948 202.865ZM184.185 163.905C184.185 164.736 184.022 165.559 183.704 166.326C183.386 167.094 182.919 167.792 182.332 168.379C181.744 168.967 181.047 169.433 180.279 169.751C179.512 170.069 178.689 170.232 177.858 170.232H117.089C116.258 170.232 115.435 170.069 114.667 169.751C113.9 169.433 113.202 168.967 112.614 168.379C112.027 167.792 111.561 167.094 111.243 166.326C110.925 165.559 110.761 164.736 110.761 163.905V143.927C110.761 143.096 110.925 142.273 111.243 141.506C111.561 140.738 112.027 140.04 112.614 139.453C113.202 138.865 113.9 138.399 114.667 138.081C115.435 137.763 116.258 137.6 117.089 137.6H177.858C178.689 137.6 179.512 137.763 180.279 138.081C181.047 138.399 181.744 138.865 182.332 139.453C182.919 140.04 183.386 140.738 183.704 141.506C184.022 142.273 184.185 143.096 184.185 143.927V163.905Z" fill="#3F3D56"/>
<path d="M158.155 124.512H136.791L141.369 117.645H153.577L158.155 124.512Z" fill="#61A199"/>
<path d="M144.882 107.763C158.109 107.763 168.832 97.0398 168.832 83.8125C168.832 70.5852 158.109 59.8623 144.882 59.8623C131.655 59.8623 120.932 70.5852 120.932 83.8125C120.932 97.0398 131.655 107.763 144.882 107.763Z" fill="#61A199"/>
<path d="M142.6 93.9221L135.432 84.7051L139.6 81.4628L142.995 85.8269L154.461 73.7227L158.295 77.3555L142.6 93.9221Z" fill="white"/>
<path d="M149.654 224.2H144.826V227.097H149.654V224.2Z" fill="white"/>
<path d="M149.654 252.038H144.826V245.803H149.654V252.038ZM149.654 239.567H144.826V233.332H149.654V239.567Z" fill="white"/>
<path d="M149.654 258.273H144.826V261.17H149.654V258.273Z" fill="white"/>
</g>
<defs>
<clipPath id="clip0">
<rect width="449.731" height="300" fill="white"/>
</clipPath>
</defs>
</svg>
