<?xml version="1.0" encoding="utf-8"?>
<!-- Generator: Adobe Illustrator 24.1.2, SVG Export Plug-In . SVG Version: 6.00 Build 0)  -->
<svg version="1.1" xmlns="http://www.w3.org/2000/svg" xmlns:xlink="http://www.w3.org/1999/xlink" x="0px" y="0px"
	 viewBox="0 0 32 32" style="enable-background:new 0 0 32 32;" xml:space="preserve">
<style type="text/css">
	.st0{fill:#F2F2F2;}
	.st1{fill:#BDBDBD;}
</style>
<g id="Слой_2">
	<rect class="st0" width="32" height="32"/>
</g>
<g id="Слой_1">
	<path class="st1" d="M15.7,6.7c0.4,0,0.9,0.2,1.2,0.5c0.3,0.3,0.5,0.7,0.5,1.2c0,0.6-0.3,1.2-0.8,1.4v1.1h0.8c1.5,0,3,0.6,4.1,1.7
		c1.1,1.1,1.7,2.6,1.7,4.1H24c0.2,0,0.4,0.1,0.6,0.2c0.2,0.2,0.2,0.4,0.2,0.6V20c0,0.2-0.1,0.4-0.2,0.6c-0.2,0.2-0.4,0.2-0.6,0.2
		h-0.8v0.8c0,0.4-0.2,0.9-0.5,1.2c-0.3,0.3-0.7,0.5-1.2,0.5H9.9c-0.4,0-0.9-0.2-1.2-0.5c-0.3-0.3-0.5-0.7-0.5-1.2v-0.8H7.4
		c-0.2,0-0.4-0.1-0.6-0.2S6.5,20.2,6.5,20v-2.5c0-0.2,0.1-0.4,0.2-0.6c0.2-0.2,0.4-0.2,0.6-0.2h0.8c0-1.5,0.6-3,1.7-4.1
		c1.1-1.1,2.6-1.7,4.1-1.7h0.8V9.8C14.4,9.5,14,8.9,14,8.3c0-0.4,0.2-0.9,0.5-1.2C14.8,6.8,15.3,6.7,15.7,6.7z M12,15.8
		c-0.6,0-1.1,0.2-1.5,0.6c-0.4,0.4-0.6,0.9-0.6,1.5c0,0.6,0.2,1.1,0.6,1.5c0.4,0.4,0.9,0.6,1.5,0.6c0.6,0,1.1-0.2,1.5-0.6
		s0.6-0.9,0.6-1.5c0-0.6-0.2-1.1-0.6-1.5S12.5,15.8,12,15.8z M19.5,15.8c-0.6,0-1.1,0.2-1.5,0.6c-0.4,0.4-0.6,0.9-0.6,1.5
		c0,0.6,0.2,1.1,0.6,1.5c0.4,0.4,0.9,0.6,1.5,0.6c0.6,0,1.1-0.2,1.5-0.6c0.4-0.4,0.6-0.9,0.6-1.5c0-0.6-0.2-1.1-0.6-1.5
		C20.5,16.1,20,15.8,19.5,15.8z"/>
</g>
</svg>
