<svg width="16" height="17" viewBox="0 0 16 17" fill="none" xmlns="http://www.w3.org/2000/svg">
<path d="M15.0797 8.28768L8.18723 15.1802C7.34285 16.0246 6.19762 16.4989 5.00348 16.4989C3.80934 16.4989 2.66411 16.0246 1.81973 15.1802C0.975346 14.3358 0.500977 13.1906 0.500977 11.9964C0.500977 10.8023 0.975346 9.65707 1.81973 8.81268L8.71223 1.92018C9.27515 1.35726 10.0386 1.04102 10.8347 1.04102C11.6308 1.04102 12.3943 1.35726 12.9572 1.92018C13.5202 2.48311 13.8364 3.24659 13.8364 4.04268C13.8364 4.83878 13.5202 5.60226 12.9572 6.16518L6.05723 13.0577C5.77577 13.3391 5.39403 13.4973 4.99598 13.4973C4.59793 13.4973 4.21619 13.3391 3.93473 13.0577C3.65327 12.7762 3.49514 12.3945 3.49514 11.9964C3.49514 11.5984 3.65327 11.2166 3.93473 10.9352L10.3022 4.57518" stroke="black" stroke-linecap="round" stroke-linejoin="round"/>
</svg>
